<?xml version="1.0" encoding="UTF-8"?><svg id="Capa_2" xmlns="http://www.w3.org/2000/svg" viewBox="0 0 197.88 186.76"><defs><style>.cls-1{fill:#fff;}</style></defs><g id="Capa_1-2"><g id="mJ7fJ6"><g><path class="cls-1" d="M197.88,34.01c-1.83,2.39-3.01,2.57-5.47,.82-1.13-.8-2.24-1.62-3.62-2.61v35.16c1.25,0,2.45-.05,3.64,.01,2.12,.1,3.4,1.24,3.37,2.94-.03,1.71-1.29,2.8-3.45,2.83-3.54,.04-7.08,.03-10.63,0-2.4-.02-3.6-.96-3.67-2.77-.06-1.83,1.07-2.83,3.45-3.02,.38-.03,.76-.07,1.36-.12v-1.91c0-11.78-.03-23.57,.03-35.35,0-1.52-.47-2.46-1.71-3.35-9.56-6.88-19.07-13.82-28.69-20.81-.91,.65-1.8,1.26-2.67,1.9-8.75,6.36-17.51,12.69-26.21,19.12-.75,.55-1.47,1.71-1.48,2.6-.1,12.23-.06,24.47-.06,36.7,0,.31,.04,.63,.07,1.08h18.12v-2.09c0-7.99,0-15.97,0-23.96,0-4.34,1.43-5.76,5.82-5.76,4.31,0,8.63-.01,12.94,0,4.14,.01,5.61,1.48,5.61,5.56,0,8.05,0,16.1,0,24.15v2.09c1.1,.12,2,.16,2.88,.34,1.56,.32,2.29,1.38,2.2,2.93-.08,1.47-.92,2.37-2.39,2.59-.63,.09-1.28,.09-1.93,.09-17.26,0-34.52,0-51.77,0-3.12,0-4.53-.94-4.47-2.96,.06-1.94,1.45-2.82,4.45-2.83,.82,0,1.64,0,2.55,0V32.28c-1.35,.95-2.52,1.77-3.68,2.6-1.99,1.42-3.64,1.4-4.77-.05-1.15-1.48-.73-3.11,1.26-4.56,13.16-9.59,26.33-19.17,39.51-28.73,2.85-2.07,5.08-2.04,7.97,.02,2.71,1.93,5.39,3.89,7.82,5.65,.89-1.6,1.37-3.5,2.59-4.35,1.33-.93,3.33-.99,5.07-1.21,1.39-.18,2.83-.04,4.25-.04,4.21,.02,6.07,1.89,6.08,6.16,.01,3.54,.06,7.08-.03,10.62-.03,1.36,.35,2.23,1.5,3.03,3.8,2.65,7.53,5.4,11.26,8.16,1.01,.75,1.91,1.66,2.86,2.5v1.93Zm-39.12,33.27v-25.92h-12.54v25.92h12.54Zm17.6-51.28V7.52h-5.99c.01,1.79,.05,4.23,.05,4.23,0,0,4.12,2.92,5.94,4.24Z"/><path class="cls-1" d="M67.69,40.76c.06-1.08,.08-1.83,.14-2.57,.23-2.96,2.17-4.84,5.16-4.9,2.77-.06,5.54-.02,8.31-.01,3.95,.01,5.87,1.94,5.89,5.95,.02,4.64,.05,9.28-.02,13.91-.02,1.28,.35,2.11,1.43,2.87,5.04,3.57,10.06,7.19,14.98,10.92,.87,.66,1.7,1.9,1.79,2.93,.19,2.22-2.41,3.41-4.47,2.16-1.04-.63-2-1.41-2.99-2.12-.93-.67-1.87-1.35-3.03-2.19v28.45c.68-.45,1.26-.8,1.81-1.2,6.3-4.58,12.6-9.17,18.9-13.74,3.16-2.29,5.3-2.29,8.45,0,4.64,3.36,9.27,6.74,13.91,10.1,.55,.4,1.13,.76,1.96,1.32,0-1.82-.01-3.35,0-4.87,.03-3.42,1.98-5.43,5.35-5.45,4.12-.03,8.24-.02,12.37,0,3.38,.02,5.41,2.01,5.43,5.39,.03,6.76,.04,13.53-.02,20.29,0,1.16,.34,1.86,1.29,2.53,6.54,4.69,13.03,9.44,19.54,14.18,.52,.38,1.07,.73,1.53,1.18,1.17,1.13,1.38,2.46,.48,3.83-.85,1.29-2.54,1.64-3.92,.71-2.29-1.55-4.5-3.23-6.74-4.85-.71-.51-1.43-1.02-2.47-1.77v2.4c0,7.79,0,15.59,0,23.38,0,.64,.02,1.3-.13,1.92-.36,1.49-1.33,2.36-2.91,2.28-1.56-.08-2.46-1.02-2.69-2.54-.1-.63-.05-1.29-.05-1.93,0-9.27,.03-18.55-.05-27.82,0-.94-.49-2.24-1.19-2.76-15.1-11.08-30.27-22.08-45.43-33.09-.1-.07-.23-.12-.46-.24-.47,.31-1.01,.65-1.52,1.02-14.58,10.6-29.15,21.21-43.76,31.77-1.35,.97-1.88,2-1.87,3.67,.06,18.94,.04,37.87,.04,56.81,0,.69,0,1.38,0,2.18h30.24v-2.21c0-13.01,0-26.02,0-39.03,0-4.8,1.85-6.66,6.62-6.66,6.96,0,13.91,0,20.87,0,4.27,0,6.28,1.98,6.28,6.22,.01,13.14,0,26.28,0,39.42,0,.7,0,1.4,0,2.22h30.23c0-3.49,0-6.95,0-10.41,0-1.61-.02-3.22,0-4.83,.03-2.25,1.15-3.61,2.91-3.59,1.75,.02,2.86,1.39,2.87,3.66,.03,4.38,0,8.76,0,13.14,0,.63,0,1.27,0,2.16,2.18,0,4.21-.02,6.24,0,.77,.01,1.55,.04,2.29,.22,1.45,.36,2.13,1.42,2.06,2.86-.08,1.45-.89,2.4-2.37,2.62-.7,.1-1.41,.08-2.12,.08-39.35,0-78.71,0-118.06,0-.26,0-.52,0-.77,0-2.46-.04-3.75-1.06-3.72-2.92,.03-1.82,1.37-2.84,3.83-2.87,2.18-.02,4.36,0,6.66,0v-57.02c-1.6,1.14-3.08,2.19-4.55,3.26-1.31,.94-2.59,1.92-3.91,2.84-1.89,1.32-3.53,1.18-4.57-.32-.98-1.41-.6-3.04,1.13-4.33,3.46-2.57,6.97-5.08,10.46-7.62,.49-.36,.96-.76,1.87-1.49h-2.54c-19.19,0-38.39,0-57.58,0-.77,0-1.55,0-2.3-.16-1.53-.31-2.39-1.37-2.31-2.89,.09-1.59,1.05-2.64,2.73-2.7,1.78-.07,3.57-.02,5.48-.02v-42.82c-1.6,1.15-3.03,2.19-4.46,3.21-.68,.48-1.35,1-2.09,1.38-1.36,.71-2.55,.23-3.45-.84-.94-1.13-.88-2.39,.06-3.52,.4-.49,.94-.88,1.46-1.25,15.46-11.25,30.93-22.49,46.39-33.73,3.08-2.24,5.22-2.25,8.27-.04,3.53,2.55,7.05,5.12,10.83,7.87Zm-14.88-3.64c-.3,.18-.54,.29-.74,.44-11.4,8.29-22.82,16.56-34.17,24.93-.72,.53-1.25,1.8-1.25,2.72-.08,14.49-.06,28.98-.05,43.48,0,.55,.08,1.11,.13,1.66h22.25c0-.83,0-1.52,0-2.22,0-9.92-.01-19.84,0-29.76,0-3.37,1.51-5.31,4.49-5.37,6.18-.12,12.37-.11,18.55,0,2.74,.05,4.36,1.82,4.48,4.58,.09,1.93,.04,3.86,.02,5.8-.02,2.28-1.09,3.59-2.86,3.59-1.77,0-2.87-1.32-2.92-3.59-.03-1.52,0-3.03,0-4.49h-15.85v31.48h15.85c0-.8,0-1.49,0-2.18,0-2.9-.05-5.8,.03-8.69,.06-1.93,1.34-3.22,2.95-3.19,1.64,.03,2.75,1.3,2.81,3.28,.04,1.48,.01,2.96,.01,4.44,0,2.1,0,4.2,0,6.45,2.53,0,4.78,.11,7.01-.05,1.08-.07,2.28-.41,3.16-1.01,3.66-2.52,7.2-5.21,10.83-7.77,.98-.69,1.43-1.39,1.43-2.66-.06-11.27-.05-22.54,0-33.82,0-1.3-.41-2.15-1.46-2.9-4.3-3.06-8.55-6.19-12.83-9.29-7.29-5.29-14.58-10.59-21.85-15.87Zm77.96,143.76v-41.98h-21.86v41.98h21.86Zm14.94-92.72c0,2.6-.09,5.03,.05,7.45,.04,.75,.53,1.7,1.12,2.15,2.95,2.27,5.99,4.42,9.01,6.59,.37,.27,.81,.46,1.23,.69v-16.88h-11.41ZM81.28,50.64v-11.44h-7.67c0,1.73-.04,3.33,.03,4.92,.02,.46,.23,1.06,.57,1.32,2.23,1.71,4.52,3.34,7.08,5.2Z"/><path class="cls-1" d="M78.27,150.33c0-3.86-.02-7.72,0-11.58,.03-3.93,1.9-5.79,5.78-5.8,2.77,0,5.53-.03,8.3,0,3.09,.04,5.14,1.95,5.16,5.02,.06,8.3,.06,16.59,0,24.89-.03,3-2.04,4.85-5.06,4.89-2.96,.04-5.92,.03-8.88,0-3.31-.03-5.23-1.91-5.29-5.28-.06-4.05-.02-8.1-.02-12.16Zm5.94-11.5v23.02h7.4v-23.02h-7.4Z"/><path class="cls-1" d="M141.84,150.32c0-3.99-.02-7.98,0-11.97,.02-3.39,2-5.36,5.4-5.39,2.89-.02,5.79-.04,8.68,0,3.13,.04,5.19,2.08,5.2,5.22,.04,8.11,.03,16.21,0,24.32-.01,3.27-2.04,5.24-5.33,5.27-2.96,.03-5.92,.04-8.88,0-3.05-.04-5.05-2.04-5.08-5.09-.04-4.12,0-8.23-.01-12.35Zm5.92-11.46v22.96h7.49v-22.96h-7.49Z"/></g></g></g></svg>