<?xml version="1.0" encoding="UTF-8"?><svg id="Capa_2" xmlns="http://www.w3.org/2000/svg" viewBox="0 0 186.69 186.72"><defs><style>.cls-1{fill:#fff;}</style></defs><g id="Capa_1-2"><g id="Q2z6Il"><g><path class="cls-1" d="M22.35,11.65c-.05,1.03-.12,1.69-.12,2.35,0,45.61,0,91.22,0,136.83,0,6.78,3.26,11.58,9.02,13.11,1.45,.39,3.02,.5,4.53,.5,45.67,.03,91.35,.02,137.02,.02,.6,0,1.2-.05,2.16-.09-.6-.69-.95-1.15-1.36-1.56-2.74-2.76-5.52-5.47-8.21-8.28-1.37-1.42-1.3-3.41-.04-4.68,1.27-1.27,3.14-1.46,4.5-.13,5.35,5.25,10.66,10.55,15.9,15.91,1.36,1.4,1.19,3.12-.16,4.49-5.17,5.24-10.36,10.45-15.62,15.6-1.43,1.41-3.36,1.27-4.66-.06-1.25-1.29-1.28-3.26,.09-4.68,2.6-2.7,5.29-5.31,7.93-7.97,.47-.48,.92-.98,1.76-1.88h-3.03c-45.33,0-90.65,0-135.98,0-9.3,0-16.36-4.35-19.14-12.22-.95-2.68-1.31-5.69-1.32-8.56-.08-45.19-.06-90.39-.06-135.58v-3.09c-.75,.64-1.22,.99-1.62,1.39-2.66,2.64-5.29,5.32-7.97,7.93-1.61,1.57-3.63,1.63-4.98,.24-1.35-1.39-1.34-3.24,.21-4.81C6.22,11.36,11.27,6.3,16.36,1.28c1.72-1.7,3.39-1.7,5.11,0,5.09,5.02,10.14,10.08,15.17,15.17,1.56,1.58,1.59,3.41,.25,4.82-1.33,1.39-3.38,1.35-4.98-.21-2.64-2.57-5.21-5.2-7.82-7.79-.47-.47-.98-.91-1.73-1.61Z"/><path class="cls-1" d="M186.61,74.83c0,18.6,0,37.21,0,55.81,0,.76,.08,1.55-.09,2.28-.38,1.68-1.48,2.67-3.24,2.67-1.76,0-2.86-.99-3.24-2.67-.17-.73-.09-1.52-.09-2.28,0-36.72,0-73.45,0-110.17,0-8.88-4.89-13.76-13.79-13.76-36.65,0-73.3,0-109.95,0-.69,0-1.39,.04-2.08-.03-1.84-.2-3.07-1.57-3.06-3.33,.02-1.76,1.27-3.1,3.12-3.28,.62-.06,1.25-.02,1.87-.02,36.72,0,73.44,0,110.16,0,12.5,0,20.39,7.9,20.39,20.42,0,18.12,0,36.24,0,54.36Z"/><path class="cls-1" d="M62.68,60.11c9.45-5.7,17.71-4.52,24.94,3.54,4.74-5.71,10.68-8.16,17.95-6.59,7.97,1.73,13.51,8.62,13.55,16.77,.06,15.89,.03,31.79,.02,47.69,0,2.53-1.18,3.95-3.23,4-2.16,.05-3.42-1.39-3.42-4.02-.01-15.76,.03-31.51-.02-47.27-.02-7.68-7.32-12.86-14.41-10.34-4.47,1.59-7.18,5.64-7.19,10.86-.02,15.27,0,30.54,0,45.81,0,3.46-1,4.95-3.3,4.95-2.31,0-3.36-1.53-3.36-4.95,0-15.48,.01-30.96-.01-46.44,0-4.34-1.97-7.64-5.81-9.62-3.75-1.94-7.54-1.7-11.05,.67-3.45,2.34-4.75,5.78-4.74,9.87,.03,15.13,.01,30.26,0,45.39,0,.76,.03,1.54-.08,2.29-.25,1.64-1.25,2.61-2.91,2.76-1.74,.15-2.96-.65-3.44-2.35-.2-.72-.22-1.51-.22-2.26-.01-20.68-.01-41.37,0-62.05,0-.82,.03-1.7,.31-2.45,.56-1.54,1.8-2.3,3.43-2.1,1.52,.18,2.56,1.08,2.81,2.64,.15,.95,.12,1.93,.18,3.21Z"/><path class="cls-1" d="M141.42,69.73c1.58,0,2.72,0,3.87,0,2.08,0,4.16,0,6.24,0,2.94,.02,4.59,1.23,4.6,3.36,0,2.15-1.57,3.3-4.58,3.3-4.79,0-9.57-.03-14.36,.02-2.22,.02-3.98-.69-4.86-2.81-.87-2.1-.2-3.87,1.32-5.48,4.76-5.05,9.47-10.14,14.19-15.23,2.13-2.3,2.51-5.1,1.06-7.63-1.34-2.34-4.01-3.57-6.74-3.11-2.8,.48-4.79,2.67-5.2,5.72-.05,.34-.06,.69-.13,1.03-.42,1.97-1.85,3.06-3.72,2.83-1.72-.21-2.8-1.55-2.83-3.51-.1-6.04,4.7-11.67,10.82-12.69,6.37-1.06,12.65,2.61,14.61,8.7,1.6,4.96,.58,9.46-2.97,13.31-3.2,3.47-6.45,6.88-9.68,10.33-.45,.48-.88,.99-1.65,1.86Z"/></g></g></g></svg>