<svg id="visual" viewBox="0 0 900 600" width="900" height="600" xmlns="http://www.w3.org/2000/svg"
    xmlns:xlink="http://www.w3.org/1999/xlink" version="1.1">
    <rect x="0" y="0" width="900" height="600" fill="#001220"></rect>
    <defs>
        <linearGradient id="grad1_0" x1="33.3%" y1="0%" x2="100%" y2="100%">
            <stop offset="20%" stop-color="#e03e55" stop-opacity="1"></stop>
            <stop offset="80%" stop-color="#e03e55" stop-opacity="1"></stop>
        </linearGradient>
    </defs>
    <defs>
        <linearGradient id="grad1_1" x1="33.3%" y1="0%" x2="100%" y2="100%">
            <stop offset="20%" stop-color="#e03e55" stop-opacity="1"></stop>
            <stop offset="80%" stop-color="#bc3167" stop-opacity="1"></stop>
        </linearGradient>
    </defs>
    <defs>
        <linearGradient id="grad1_2" x1="33.3%" y1="0%" x2="100%" y2="100%">
            <stop offset="20%" stop-color="#8f306e" stop-opacity="1"></stop>
            <stop offset="80%" stop-color="#bc3167" stop-opacity="1"></stop>
        </linearGradient>
    </defs>
    <defs>
        <linearGradient id="grad1_3" x1="33.3%" y1="0%" x2="100%" y2="100%">
            <stop offset="20%" stop-color="#8f306e" stop-opacity="1"></stop>
            <stop offset="80%" stop-color="#603069" stop-opacity="1"></stop>
        </linearGradient>
    </defs>
    <defs>
        <linearGradient id="grad1_4" x1="33.3%" y1="0%" x2="100%" y2="100%">
            <stop offset="20%" stop-color="#342b57" stop-opacity="1"></stop>
            <stop offset="80%" stop-color="#603069" stop-opacity="1"></stop>
        </linearGradient>
    </defs>
    <defs>
        <linearGradient id="grad1_5" x1="33.3%" y1="0%" x2="100%" y2="100%">
            <stop offset="20%" stop-color="#342b57" stop-opacity="1"></stop>
            <stop offset="80%" stop-color="#11203d" stop-opacity="1"></stop>
        </linearGradient>
    </defs>
    <defs>
        <linearGradient id="grad1_6" x1="33.3%" y1="0%" x2="100%" y2="100%">
            <stop offset="20%" stop-color="#001220" stop-opacity="1"></stop>
            <stop offset="80%" stop-color="#11203d" stop-opacity="1"></stop>
        </linearGradient>
    </defs>
    <defs>
        <linearGradient id="grad2_0" x1="0%" y1="0%" x2="66.7%" y2="100%">
            <stop offset="20%" stop-color="#e03e55" stop-opacity="1"></stop>
            <stop offset="80%" stop-color="#e03e55" stop-opacity="1"></stop>
        </linearGradient>
    </defs>
    <defs>
        <linearGradient id="grad2_1" x1="0%" y1="0%" x2="66.7%" y2="100%">
            <stop offset="20%" stop-color="#bc3167" stop-opacity="1"></stop>
            <stop offset="80%" stop-color="#e03e55" stop-opacity="1"></stop>
        </linearGradient>
    </defs>
    <defs>
        <linearGradient id="grad2_2" x1="0%" y1="0%" x2="66.7%" y2="100%">
            <stop offset="20%" stop-color="#bc3167" stop-opacity="1"></stop>
            <stop offset="80%" stop-color="#8f306e" stop-opacity="1"></stop>
        </linearGradient>
    </defs>
    <defs>
        <linearGradient id="grad2_3" x1="0%" y1="0%" x2="66.7%" y2="100%">
            <stop offset="20%" stop-color="#603069" stop-opacity="1"></stop>
            <stop offset="80%" stop-color="#8f306e" stop-opacity="1"></stop>
        </linearGradient>
    </defs>
    <defs>
        <linearGradient id="grad2_4" x1="0%" y1="0%" x2="66.7%" y2="100%">
            <stop offset="20%" stop-color="#603069" stop-opacity="1"></stop>
            <stop offset="80%" stop-color="#342b57" stop-opacity="1"></stop>
        </linearGradient>
    </defs>
    <defs>
        <linearGradient id="grad2_5" x1="0%" y1="0%" x2="66.7%" y2="100%">
            <stop offset="20%" stop-color="#11203d" stop-opacity="1"></stop>
            <stop offset="80%" stop-color="#342b57" stop-opacity="1"></stop>
        </linearGradient>
    </defs>
    <defs>
        <linearGradient id="grad2_6" x1="0%" y1="0%" x2="66.7%" y2="100%">
            <stop offset="20%" stop-color="#11203d" stop-opacity="1"></stop>
            <stop offset="80%" stop-color="#001220" stop-opacity="1"></stop>
        </linearGradient>
    </defs>
    <g transform="translate(900, 0)">
        <path
            d="M0 297.5C-29.6 290.1 -59.3 282.8 -89.3 274.9C-119.3 266.9 -149.8 258.3 -174.8 240.6C-199.9 223 -219.7 196.3 -232.2 168.7C-244.7 141.1 -250 112.6 -259.6 84.4C-269.3 56.1 -283.4 28 -297.5 0L0 0Z"
            fill="#061a2e"></path>
        <path
            d="M0 255C-25.4 248.7 -50.8 242.4 -76.5 235.6C-102.3 228.8 -128.4 221.4 -149.9 206.3C-171.4 191.1 -188.3 168.2 -199 144.6C-209.7 120.9 -214.3 96.5 -222.5 72.3C-230.8 48.1 -242.9 24 -255 0L0 0Z"
            fill="#21264b"></path>
        <path
            d="M0 212.5C-21.2 207.2 -42.3 202 -63.8 196.3C-85.2 190.6 -107 184.5 -124.9 171.9C-142.8 159.3 -156.9 140.2 -165.8 120.5C-174.8 100.8 -178.5 80.4 -185.5 60.3C-192.4 40.1 -202.4 20 -212.5 0L0 0Z"
            fill="#492e61"></path>
        <path
            d="M0 170C-16.9 165.8 -33.9 161.6 -51 157.1C-68.2 152.5 -85.6 147.6 -99.9 137.5C-114.2 127.4 -125.5 112.2 -132.7 96.4C-139.8 80.6 -142.8 64.4 -148.4 48.2C-153.9 32.1 -161.9 16 -170 0L0 0Z"
            fill="#77306d"></path>
        <path
            d="M0 127.5C-12.7 124.3 -25.4 121.2 -38.3 117.8C-51.1 114.4 -64.2 110.7 -74.9 103.1C-85.7 95.6 -94.1 84.1 -99.5 72.3C-104.9 60.5 -107.1 48.3 -111.3 36.2C-115.4 24 -121.5 12 -127.5 0L0 0Z"
            fill="#a6306c"></path>
        <path
            d="M0 85C-8.5 82.9 -16.9 80.8 -25.5 78.5C-34.1 76.3 -42.8 73.8 -50 68.8C-57.1 63.7 -62.8 56.1 -66.3 48.2C-69.9 40.3 -71.4 32.2 -74.2 24.1C-76.9 16 -81 8 -85 0L0 0Z"
            fill="#cf355f"></path>
        <path
            d="M0 42.5C-4.2 41.4 -8.5 40.4 -12.8 39.3C-17 38.1 -21.4 36.9 -25 34.4C-28.6 31.9 -31.4 28 -33.2 24.1C-35 20.2 -35.7 16.1 -37.1 12.1C-38.5 8 -40.5 4 -42.5 0L0 0Z"
            fill="#e03e55"></path>
    </g>
    <g transform="translate(0, 600)">
        <path
            d="M0 -297.5C25.3 -278.8 50.6 -260.2 82.8 -254.9C115 -249.6 154 -257.6 174.8 -240.6C195.7 -223.7 198.4 -181.8 210.3 -152.8C222.3 -123.8 243.6 -107.7 259.6 -84.4C275.7 -61 286.6 -30.5 297.5 0L0 0Z"
            fill="#061a2e"></path>
        <path
            d="M0 -255C21.7 -239 43.4 -223 71 -218.5C98.6 -213.9 132 -220.8 149.9 -206.3C167.7 -191.8 170 -155.9 180.3 -131C190.6 -106.1 208.8 -92.3 222.5 -72.3C236.3 -52.3 245.6 -26.2 255 0L0 0Z"
            fill="#21264b"></path>
        <path
            d="M0 -212.5C18.1 -199.2 36.2 -185.9 59.2 -182.1C82.1 -178.3 110 -184 124.9 -171.9C139.8 -159.8 141.7 -129.9 150.2 -109.2C158.8 -88.4 174 -76.9 185.5 -60.3C196.9 -43.6 204.7 -21.8 212.5 0L0 0Z"
            fill="#492e61"></path>
        <path
            d="M0 -170C14.5 -159.3 28.9 -148.7 47.3 -145.6C65.7 -142.6 88 -147.2 99.9 -137.5C111.8 -127.8 113.4 -103.9 120.2 -87.3C127 -70.8 139.2 -61.5 148.4 -48.2C157.5 -34.9 163.8 -17.4 170 0L0 0Z"
            fill="#77306d"></path>
        <path
            d="M0 -127.5C10.9 -119.5 21.7 -111.5 35.5 -109.2C49.3 -107 66 -110.4 74.9 -103.1C83.9 -95.9 85 -77.9 90.1 -65.5C95.3 -53.1 104.4 -46.2 111.3 -36.2C118.2 -26.2 122.8 -13.1 127.5 0L0 0Z"
            fill="#a6306c"></path>
        <path
            d="M0 -85C7.2 -79.7 14.5 -74.3 23.7 -72.8C32.9 -71.3 44 -73.6 50 -68.8C55.9 -63.9 56.7 -52 60.1 -43.7C63.5 -35.4 69.6 -30.8 74.2 -24.1C78.8 -17.4 81.9 -8.7 85 0L0 0Z"
            fill="#cf355f"></path>
        <path
            d="M0 -42.5C3.6 -39.8 7.2 -37.2 11.8 -36.4C16.4 -35.7 22 -36.8 25 -34.4C28 -32 28.3 -26 30 -21.8C31.8 -17.7 34.8 -15.4 37.1 -12.1C39.4 -8.7 40.9 -4.4 42.5 0L0 0Z"
            fill="#e03e55"></path>
    </g>
</svg>