<?xml version="1.0" encoding="UTF-8"?><svg id="Capa_1" xmlns="http://www.w3.org/2000/svg" viewBox="0 0 595.28 412.02"><defs><style>.cls-1{fill:#fff;}.cls-2{fill:#e03e56;}.cls-3{fill:#504596;}</style></defs><g><g><path class="cls-3" d="M132.59,227.6c.85-3.49,2.36-6.53,4.52-9.14,2.01-2.47,4.51-4.48,7.49-6.03,2.99-1.55,6.3-2.55,9.96-3.02,3.65-.47,7.12-.33,10.4,.41,3.28,.74,6.23,2.05,8.85,3.93,2.75,1.97,4.97,4.54,6.68,7.7,1.71,3.16,2.82,6.78,3.35,10.87s.35,7.79-.5,11.28c-.85,3.49-2.3,6.56-4.34,9.2-2,2.53-4.51,4.57-7.52,6.12-3.01,1.55-6.4,2.57-10.16,3.05s-7.21,.33-10.52-.44c-3.31-.77-6.25-2.12-8.83-4.06-2.64-2.04-4.82-4.64-6.53-7.8-1.71-3.16-2.82-6.73-3.33-10.71s-.36-7.87,.49-11.36Zm18.53,20.1c2.26,2.29,5.16,3.2,8.7,2.75,3.6-.46,6.2-2.1,7.8-4.91,1.6-2.81,2.1-6.58,1.5-11.32-.6-4.69-2.05-8.18-4.34-10.49-2.29-2.31-5.18-3.24-8.67-2.79s-6.2,2.08-7.81,4.87c-1.61,2.78-2.11,6.54-1.5,11.28s2.05,8.34,4.31,10.62Z"/><g><path class="cls-3" d="M138.81,229.31c.29-1.12,.6-2.27,1.07-3.34-.44,1,.55-.98,.52-.92,.22-.39,.45-.78,.69-1.16-.12,.18,1.14-1.6,.67-.99s.95-1.08,.8-.91c.38-.42,.78-.82,1.2-1.21,.18-.17,1.66-1.37,1.08-.95,3.66-2.66,7.74-3.96,12.21-4.2,5.14-.28,8.82,.73,12.93,3.29,.07,.05,.99,.72,.33,.21,.44,.34,.85,.73,1.26,1.12s.78,.81,1.18,1.21c.8,.82,.5,.55,.29,.28,1.56,1.95,2.58,4.18,3.13,5.83,.69,2.07,1.27,4.63,1.39,6.34,.17,2.46,.13,5.22-.21,6.91-.45,2.24-1.03,3.94-1.76,5.34-1.29,2.45-1.96,3.22-4.01,5.05-.98,.88-.56,.45-.33,.28-.56,.42-1.17,.8-1.77,1.15-.41,.24-.83,.47-1.26,.69,.06-.03-1.95,.89-.95,.48-2.17,.9-4.59,1.53-6.92,1.82-4,.49-8.92-.11-12.23-1.89-3.69-1.98-6.89-5.83-8.13-9.53-.76-2.26-1.46-4.99-1.6-6.88-.12-1.55-.17-3.11-.08-4.66s.12-1.64,.52-3.36c.76-3.28-1.01-7.14-4.51-7.94-3.29-.75-7.13,.99-7.94,4.51-3.01,13.05,.78,28.27,11.67,36.65,10.66,8.2,26.95,7.95,38.24,1.07,12.4-7.55,16.16-22.39,13.27-35.98-1.32-6.21-4.4-12.38-9.1-16.73-5.15-4.78-11.65-7.32-18.58-8.04-15.65-1.63-31.46,7.44-35.5,23.03-.85,3.26,1.07,7.15,4.51,7.94s7.03-1.01,7.94-4.51Z"/><path class="cls-3" d="M146.56,252.26c6.35,6.17,16.94,6.27,23.55,.38,6.27-5.58,6.47-15.02,4.82-22.63-1.76-8.11-7.45-14.91-16.09-15.6-8.25-.66-15.73,4.55-17.92,12.51-1.24,4.52-.89,9.37,0,13.92,.82,4.23,2.65,8.29,5.64,11.42,2.34,2.44,6.8,2.53,9.12,0,2.41-2.62,2.49-6.52,0-9.12-.17-.17-.32-.36-.49-.53-.72-.75,.33,.32,.33,.44,0-.3-.66-1.03-.81-1.3-.13-.24-.24-.48-.37-.71-.66-1.21,.36,1.07,.07,.19-.21-.64-.44-1.27-.62-1.92s-.31-1.25-.44-1.88c-.06-.33-.12-.67-.18-1-.22-1.28-.05-.02,.01,.13-.24-.51-.14-1.52-.16-2.08-.03-.8-.03-1.61,.02-2.41,0,.03,.02-.87,.08-.9-.07,.04-.25,1.4-.04,.43,.12-.54,.23-1.07,.39-1.6,0-.02,.28-.67,.25-.75,.15,.48-.61,1.22-.2,.49,.12-.22,.23-.44,.35-.66,.1-.17,.2-.34,.31-.51,.27-.4,.13-.23-.44,.52,.35-.15,.77-.82,1.05-1.1,.77-.77-.29,.34-.41,.31,.04,.01,.55-.35,.65-.41,0,0,.67-.29,.69-.36-.18,.42-1.28,.45-.43,.21,.61-.18,1.52-.22,2.07-.5-.21,.11-1.49,.07-.33,.08,.3,0,.6-.02,.91-.02,.23,0,.69,.1,.88,.05-.18,.05-1.52-.33-.46-.03,.26,.07,.54,.16,.8,.22,1.05,.25-.26-.04-.39-.19,.1,.12,.56,.29,.73,.39,.18,.11,.36,.22,.53,.34,.39,.27,.24,.15-.46-.36,.18-.06,.97,.96,1.13,1.13,.53,.55-.22,.25-.32-.43,.02,.13,.38,.56,.43,.63,.28,.45,.52,.91,.77,1.38,.51,.95-.12-.25-.15-.4,.07,.38,.32,.85,.44,1.22,.39,1.21,.65,2.45,.87,3.7,.07,.37,.36,1.05-.02-.15,.09,.29,.08,.78,.1,1.06,.06,.75,.09,1.5,.08,2.26,0,.6-.24,1.5-.11,2.09-.04-.16,.3-1.52,.04-.42-.06,.27-.11,.55-.17,.82-.11,.47-.44,1.06-.47,1.54,0-.14,.7-1.4,.2-.48-.15,.28-.29,.56-.45,.84-.14,.23-.29,.44-.43,.67-.4,.63,.98-.98,.15-.26-.22,.19-.51,.43-.69,.65-.43,.53,1.19-.71,.23-.22-.22,.11-.46,.25-.67,.38-1.08,.67,1.34-.37,.07-.03-.62,.16-1.23,.32-1.85,.46-.85,.2,1.25-.05,.34-.06-.38,0-.77,.05-1.15,.04,.07,0-.88-.02-.89-.05,1,.15,1.15,.16,.44,.03l-.41-.1c.07,.02-.79-.24-.79-.25,.84,.38,1.04,.46,.6,.24-.19-.09-.37-.19-.54-.29-.18-.11-.52-.41-.7-.45l.64,.49c-.22-.19-.43-.38-.63-.59-2.42-2.35-6.74-2.59-9.12,0s-2.59,6.61,0,9.12Z"/></g></g><g><path class="cls-3" d="M189.59,218.12c-2.45,.31-4.07-.42-4.85-2.2-.43-1.16-.69-2.13-.79-2.89-.25-1.96,0-3.5,.78-4.63,.77-1.12,1.97-1.79,3.61-2l32.29-4.14c2.45-.31,4.07,.42,4.85,2.2,.43,1.16,.69,2.13,.79,2.89,.25,1.96,0,3.5-.78,4.63-.77,1.12-1.97,1.79-3.61,2l-9.07,1.16,4.36,34c.34,2.67-.56,4.25-2.71,4.75l-3.33,.59c-2.83,.36-4.88,.13-6.16-.71-1.27-.83-2.07-2.53-2.4-5.09l-4.07-31.71-8.91,1.14Z"/><path class="cls-3" d="M189.59,211.67l-.65,.06c-.71-.02-.81,0-.29,.05,.32,.23,.85,.28,1.2,.57,.14,.11,.96,1.15,.87,1.17-.03,0-.37-1.27-.35-1.2-.09-.31-.08-1.07-.04-.01,0,.02-.1-1.22,0-1.31,.02-.02-.21,.96-.3,1.1-.34,.51-.77,.61-1.28,.82,1.75-.71-1.32,.07,.03-.12,.49-.07,.99-.13,1.49-.19l12.51-1.61,13.71-1.76c1.24-.16,2.48-.33,3.72-.48,.35-.04,.7-.07,1.05-.11,1.36-.16,.24,.1-.02-.1-.48-.37-.93-.57-1.37-1.03-.24-.25-.36-1.1-.29-.36,.02,.2,.41,1.86,.33,1.16-.09-.82-.04,.55-.03,.74,.04,.62,.11-.6,.48-.99,.22-.24,.69-.35,.86-.54,.44-.13,.3-.09-.39,.11,1.03-.12,1.35-.15,.98-.1-.84,.2-1.76,.23-2.61,.34l-6.4,.82c-3.1,.4-6.94,2.65-6.45,6.45l4.14,32.25c.07,.55,.15,1.09,.21,1.64,0,.04,.01,.07,.01,.11,.02,.17,.04,.48,.06,.65,.05,.45-.24,.72,.05,.27,.63-.96,.43-1.37,1.61-2.06,1.58-.92,.58-.34,.05-.28-.8,.08-1.6,.28-2.39,.43-.26,.05-1.14,.09-.18,.04,1.13-.06-.1-.02-.27-.01-.44,0-.87,.02-1.31,.02-1.31,.01,.64,.21-.45-.09,0,0,1.11,.54,.51,.21s.49,.37,.63,.55c.58,.76,.35,.82,.1-.14-.02-.09-.28-.98-.23-1.01,0,0,.13,1.03,.11,.94-.94-4.84-1.27-9.88-1.9-14.77l-2.17-16.92c-.4-3.1-2.65-6.94-6.45-6.45l-8.91,1.14c-3.33,.43-6.62,2.66-6.45,6.45,.14,3.13,2.87,6.91,6.45,6.45l8.91-1.14-6.45-6.45c1.43,11.13,2.57,22.34,4.3,33.43,.58,3.69,2.37,7.27,5.73,9.16s7.24,1.71,10.83,1.13c1.96-.32,4.02-.57,5.78-1.57,3.55-2.02,5.33-5.98,4.94-9.98-.51-5.18-1.33-10.35-1.99-15.52l-2.37-18.49-6.45,6.45c6.86-.88,15.98-.51,19.06-8.05,2.26-5.53,.49-13.8-5.16-16.63-2.56-1.28-5.11-1.23-7.81-.88-10.03,1.29-20.07,2.56-30.1,3.86-1.95,.25-3.81,.49-5.57,1.46-3.44,1.89-5.33,5.23-5.71,9.05-.74,7.41,3.97,14.92,12.09,14.17,3.35-.31,6.62-2.75,6.45-6.45-.14-3.23-2.85-6.78-6.45-6.45Z"/></g><g><path class="cls-3" d="M233.97,208.52c-.3-2.34,.14-4.28,1.33-5.82,1.19-1.54,2.95-2.46,5.3-2.76l23.62-3.03c2.51-.32,4.09,.36,4.75,2.05,.43,1.16,.69,2.1,.78,2.81,.49,3.81-.9,5.93-4.17,6.35l-17.25,2.21,.98,7.6,15.04-1.93c2.51-.32,4.09,.36,4.75,2.05,.41,1.06,.67,1.96,.77,2.73,.49,3.81-.87,5.93-4.09,6.34l-15.04,1.93,1.1,8.58,17.66-2.27c2.51-.32,4.09,.36,4.75,2.05,.43,1.16,.68,2.1,.78,2.81,.5,3.87-.89,6.01-4.16,6.43l-23.87,3.06c-2.34,.3-4.28-.14-5.82-1.33-1.54-1.19-2.46-2.95-2.76-5.3l-4.44-34.57Z"/><path class="cls-3" d="M240.42,208.52c-.04-.45-.05-.9-.09-1.36-.17-1.87-.13,.57,.05-.42,.16-.89-.51,.65,.02-.06l.14-.25c-.43,.53-.4,.52,.11-.02l-.19,.15c-.35,.27-.25,.22,.32-.14-.09,0-1.4,.42,.2-.01s-.77,.04-.22-.04c1.23-.18,2.46-.32,3.7-.47l13.83-1.78,5.01-.64c.3-.04,.61-.09,.91-.12,.22-.02,.93-.1,.67-.06,.66-.1,.78,.32,0-.12-.47-.26-.81-.4-1.21-.81-.44-.45-.78-1.62-.48-.4,.09,.35,.18,.72,.27,1.07-.32-1.22-.1-.44-.06-.05,.14,1.28-.1,.11,.11-.14l-.11,.46,.33-.71c-.78,.89,.39-.34,.58-.54l.32-.25c-.5,.26-.52,.28-.06,.05l.33-.16c-.69,.14-.66,.16,.09,.05,.88,0,.71-.09,.43-.05-1.52,.21-3.04,.39-4.56,.59l-12.52,1.61c-3.1,.4-6.94,2.65-6.45,6.45l.98,7.6c.4,3.1,2.65,6.94,6.45,6.45l9.83-1.26c1.61-.21,3.22-.43,4.84-.62,.12-.01,.24-.03,.36-.05,.22-.03,.45-.05,.68-.06,.82,.02,.82-.02,0-.12-.1-.08-2.04-1.73-1.84-1.74,.15,.45,.28,.9,.38,1.36-.06-.59-.08-.66-.05-.2,.02,.28,.02,.57,.01,.85,.16-.85,.16-.93,.01-.23,.41-.83,.45-.94,.12-.34,.27-.49,.64-.88,1.13-1.16-.6,.32-.51,.29,.29-.11-.87,.19-.64,.18,.7-.03-.12,.02-.24,.03-.36,.05-1.61,.21-3.22,.41-4.84,.62l-9.83,1.26c-3.1,.4-6.94,2.65-6.45,6.45l1.1,8.58c.4,3.1,2.65,6.94,6.45,6.45,5.83-.75,11.65-1.62,17.5-2.25,.05,0,.11-.02,.16-.02-.12,.01,1.26-.14,1.28-.08,.01,.04-.9-.25-.94-.27-.14-.07-1.84-1.29-1.57-1.67,0,.01,.29,1.02,.35,1.18,.39,1.08,.11-.57,.04,.17-.02,.24-.03,.62,.01,.86-.12-.83,.15-.83,0-.21,.06-.25,.73-1.15,.11-.33,.26-.35,.5-.59,.79-.9l.32-.24c-.5,.27-.52,.28-.06,.05-.02-.06,.61-.24-.16-.04,1.52-.39,1.52-.19,1.03-.12-2.8,.39-5.61,.72-8.41,1.08l-11.89,1.53c-1.04,.13-2.08,.28-3.12,.4-.55,.07-1.1,.1-1.65,.13-.06,0-1.11,.04-.39,0s-.25,.02-.32-.13l.47,.21-.5-.29,.39,.3c-.45-.48-.53-.55-.25-.22,.49,.25-.15,0-.14-.32-.02,.81,.07,.18,0-.2-.19-.9-.22-.75-.03,.33-.04-.22-.06-.45-.09-.68-.13-1.01-.26-2.02-.39-3.03l-1.41-10.98-2.55-19.83c-.43-3.33-2.66-6.62-6.45-6.45-3.13,.14-6.91,2.87-6.45,6.45l2.52,19.62,1.54,11.99c.56,4.33,.97,8.68,4.18,12.04,3.92,4.11,9.03,4.28,14.2,3.62l12.95-1.66c3.21-.41,6.48-.69,9.67-1.25,4.17-.74,7.53-3.76,8.59-7.88s.13-9.77-2.81-12.97c-4.06-4.41-9.83-2.99-14.99-2.33l-11.52,1.48,6.45,6.45-1.1-8.58-6.45,6.45,8.79-1.13c3.64-.47,8.09-.5,11.37-2.21,7.01-3.66,7.18-15.09,1.67-20.12-3.71-3.39-8.38-2.48-12.84-1.9l-10.43,1.34,6.45,6.45-.98-7.6-6.45,6.45,13.45-1.73c2.12-.27,4.48-.38,6.53-.92,5.58-1.48,8.43-6.87,7.89-12.37-.62-6.25-4.44-11.71-11.32-11.37-1.35,.07-2.7,.33-4.04,.5l-16.23,2.08c-2.11,.27-4.33,.42-6.41,.85-6.85,1.44-11.36,7.77-10.68,14.69,.33,3.35,2.73,6.62,6.45,6.45,3.21-.14,6.81-2.85,6.45-6.45Z"/></g><g><path class="cls-3" d="M315.99,225.41c-.18,1.19-.49,2.14-.92,2.86-.44,.72-1.04,1.3-1.81,1.73-1.09,.53-2.46,.9-4.1,1.11-4.25,.55-6.84-.23-7.78-2.33l-5.26-11.21c-1.37-2.92-2.47-5.42-3.29-7.47l-.41,.05c.5,6.47,1.04,12,1.63,16.57,.62,5.68,1.02,9.87,1.2,12.56,.13,1.42-.08,2.53-.61,3.32-.54,.79-1.2,1.29-2.01,1.5-.86,.22-1.91,.41-3.17,.57-2.62,.34-4.59,.16-5.92-.53-1.33-.69-2.12-1.96-2.36-3.81l-2.79-39.19c-.09-1.15-.02-2.12,.21-2.89,.23-.78,.7-1.46,1.4-2.05,1.77-1.33,4.04-2.18,6.82-2.54,2.89-.37,5.21-.21,6.96,.48s3.14,1.99,4.16,3.91c1.38,2.59,2.92,5.69,4.6,9.3l4.41,9.74,.41-.05c1.23-8.52,2.5-15.88,3.81-22.09,.38-1.82,1.15-3.1,2.33-3.83,1.18-.73,3.02-1.26,5.53-1.58,2.67-.34,4.9-.23,6.69,.35,1.79,.57,2.92,1.58,3.38,3.01,1.04,3.36,3.39,13.47,7.05,30.33l2.05,10.12c.27,1.24,.2,2.3-.21,3.18-.41,.88-1.15,1.5-2.21,1.86-.68,.31-1.87,.57-3.55,.79-2.45,.31-4.34,.14-5.67-.52s-2.17-1.91-2.52-3.75c-1.01-5.74-1.89-11.06-2.63-15.95-.66-4.68-1.3-8.64-1.94-11.88l-.41,.05c-.27,2.25-.71,5.02-1.34,8.31-.54,2.67-.93,4.85-1.15,6.55l-.56,3.4Z"/><path class="cls-3" d="M309.77,223.69c-.1,.55-.25,1.06-.37,1.6-.18,.8,.2-.39,.33-.61,.21-.37,1.03-.33,.3-.33-.53,0-1.26,.34-1.79,.41,.55-.08-.46,.02-.51,.03-.5,.02-1.09-.04-1.59,.01-.79,.09,.94,.31-.16-.03-1.19-.36,.75,.38,.1,.05s1.49,.87,1.07,1.05c0,0-.19-.37-.19-.37-.06-.19-.17-.37-.26-.55-.44-.93-.88-1.87-1.31-2.8l-3.11-6.62c-.3-.65-.61-1.29-.91-1.94-.47-1-.93-2.01-1.37-3.02-.22-.51-.45-1.01-.66-1.52,.41,.98-.16-.41-.26-.66-.96-2.38-3.25-5.12-6.22-4.74l-.41,.05c-3.24,.42-6.75,2.62-6.45,6.45,.53,6.87,1.35,13.7,2.05,20.55,.28,2.72,.56,5.44,.75,8.16,.03,.47-.12,1.32,.05,1.73-.24-.59,.78-1.97,.83-2.02,.2-.19,1.76-.59,1-.63-.66-.03-1.51,.33-2.17,.41,.17-.02,.57-.07-.14-.02-.46,.03-.92,.05-1.38,.05-.2,0-1.51,.04-.63,0,.67-.04,.02,0-.19-.1,.78,.37,.88,.97,1.47,1.39,.35,.24-.07,.05-.08-.37,0,.02,.11,1.04,.11,1.03,.01-.04-.01-.13-.01-.17-.01-.65-.09-1.3-.14-1.94l-.6-8.41-1.59-22.36c-.14-1.98-.29-3.96-.42-5.95,0-.11-.02-.22-.02-.33-.01-.19-.02-.48-.04-.67-.04-.47-.25-.65-.05-.32s-.16,.3,.07-.19c-.11,.64-.41,1.1-.91,1.36-.25,.15-.22,.13,.09-.06,.27-.11,1.86-.86,1.05-.58,.66-.22,1.33-.4,2.01-.55,.79-.18,.64-.13,1.63-.18,.35-.02,.7-.03,1.05-.03,.17,0,1.85,.17,1.03,.03-.65-.11,1.58,.67,.26-.01,.33,.17,.66,.35,.96,.56-.7-.5-.1-.23-.03,.11-.02-.08-.7-1.26,.07,.14,.21,.37,.42,.74,.62,1.12,.42,.8,.83,1.6,1.24,2.41,1.18,2.34,2.32,4.7,3.4,7.09,1.36,2.99,2.71,5.98,4.06,8.98,.82,1.82,3.56,3.45,5.57,3.2l.41-.05c2.55-.33,5.79-1.75,6.22-4.74,.76-5.25,1.59-10.5,2.56-15.72,.39-2.1,1.01-4.25,1.25-6.37l.16-.66c-.31,.55-.29,.51,.05-.12-.33,.3-.49,.55-.85,.81,1.08-.79-1.32,.26,.19-.13,.58-.15,1.13-.33,1.72-.46,1.26-.27,1.28-.26,2.65-.3,.68-.02,1.38-.02,2.05,.06-.26-.03-1.15-.12,.09,.08s-.29-.53,.58,.23c-.39-.34-.58-.43-.91-.91-.69-1.01-.12-.25,.04,.31,.66,2.32,1.21,4.67,1.76,7.01,1.83,7.74,3.62,15.51,5.2,23.31l1.55,7.67c.08,.38,.11,.81,.24,1.18,.18,.52-.13,.11,0,.02,.29-.24,.48-1.47,.86-1.85,1.29-1.26,1.65-.79,.44-.44-1.3,.37-2,.29-3.26,.42-1.01,.1-.22,.11-.18,.06-.74-.22-.73-.17,.02,.15-.68-.45-.65-.35,.11,.3,1.39,1.39,.18-.59,.5,.47-.22-.74-.31-1.53-.44-2.29-.54-3.09-1.06-6.19-1.56-9.29-.9-5.64-1.64-11.3-2.72-16.91-.48-2.47-3.61-5.07-6.22-4.74l-.41,.05c-3.81,.49-5.98,2.59-6.45,6.45-.07,.54-.09,.71,0,.07-.06,.43-.13,.87-.19,1.3-.17,1.08-.35,2.16-.55,3.24-.38,2.09-.82,4.17-1.17,6.27-.32,1.88-.6,3.77-.91,5.66-.55,3.32,.86,7.11,4.51,7.94,3.11,.71,7.35-.95,7.94-4.51,1.1-6.65,2.47-13.27,3.29-19.97l-6.45,6.45,.41-.05-6.22-4.74c1.14,5.85,1.89,11.77,2.84,17.66,1.09,6.72,1.14,15.29,8.44,18.3,3.48,1.43,7.32,1.09,10.93,.41,3.62-.68,6.92-2.7,8.43-6.15,1.72-3.96,.37-8.22-.44-12.24-1.76-8.69-3.67-17.35-5.69-25.99-.68-2.93-1.35-5.87-2.18-8.76-1.86-6.53-7.8-9.3-14.26-9.14-3.55,.09-7.54,.68-10.7,2.43-3.48,1.93-5.16,5.37-5.92,9.12-1.42,6.92-2.54,13.89-3.56,20.88l6.22-4.74-.41,.05,5.57,3.2c-1.37-3.03-2.74-6.06-4.11-9.08-2.62-5.77-5.22-13.34-11.37-16.17-7.56-3.49-21.76-1.42-24.54,7.68-.85,2.78-.5,5.58-.3,8.41l1.75,24.55,.68,9.57c.38,5.41,2.54,10.51,8.33,11.99,2.44,.63,4.9,.56,7.37,.23,2.64-.36,5.14-.71,7.32-2.38,4.14-3.17,4.23-7.75,3.81-12.45-.76-8.69-1.9-17.33-2.58-26.03l-6.45,6.45,.41-.05-6.22-4.74c2.62,6.54,5.75,12.87,8.74,19.24,2,4.26,5.84,6.36,10.49,6.64,7.32,.44,14.96-2.73,16.37-10.57,.6-3.31-.9-7.11-4.51-7.94-3.15-.72-7.3,.95-7.94,4.51Z"/></g><g><path class="cls-3" d="M352.14,189.86c.88-3.49,4.32-5.62,10.31-6.39,3-.38,5.53-.28,7.6,.31,2.07,.59,3.51,1.64,4.31,3.14,2.53,5.05,5.66,11.93,9.38,20.65l7.75,18.28c.25,.63,.41,1.22,.48,1.77,.18,1.42-.29,2.52-1.4,3.3-1.12,.78-2.79,1.31-5.03,1.6-2.45,.31-4.26,.16-5.42-.47s-2.2-1.96-3.13-4l-2.2-5.45-14.79,1.9-.66,5.24-.24,2.02c-.31,2.31-1.32,3.74-3.02,4.29-.8,.27-1.71,.47-2.75,.6-2.62,.34-4.69,.12-6.23-.65-1.54-.77-2.42-2-2.63-3.69-.13-1.03-.12-1.81,.03-2.33,.17-.8,.3-1.73,.39-2.79,.36-2.82,1.1-7.17,2.23-13.08l1.62-8.1,1.64-7.94,1.77-8.2Zm11.88,6.45l-1.56,7.93c-.66,3.02-1.17,5.99-1.51,8.92l10.14-1.3c-2.68-6.63-4.87-11.84-6.57-15.61l-.49,.06Z"/><g><path class="cls-3" d="M358.37,191.58c.39-1.37-.57,.95-.13,.16,.11-.2,.57-1.03,.06-.23-.57,.87,.23-.19,.35-.32,.4-.43,.67-.18-.22,.16,.42-.16,1.99-.93,.77-.5,.96-.34,1.93-.62,2.92-.82,1.57-.32,3.43-.48,5.49-.25-1.11-.13,1.02,.27,1.39,.44-.87-.39,.09,.11,.18,.2-.41-.41-.81-1.1-.39-.23,3.31,6.82,6.43,13.72,9.4,20.69,1.46,3.42,2.9,6.85,4.35,10.27l2.57,6.07c.23,.54,.49,1.08,.69,1.63,.03,.08,.11,.18,.11,.26l-.43-.91,.16,.59c-.09-1.05,.21-1.92,.79-2.78l.47-.4-.43,.23c.73-.3,.73-.32-.01-.06l-.6,.16c-1.21,.3-1.32,.16-2.57,.3l-.65-.02c.64,.12,.74,.13,.31,.03-.49-.13-.35-.05,.42,.24l-.38-.23,.57,.38c-.41-.45-.47-.52-.2-.21,.19,.82-.49-.96-.49-.97-.09,.49,.48,1.2,.25,.67-.1-.23-.19-.47-.29-.71l-.72-1.8-1.1-2.73c-.96-2.38-3.25-5.12-6.22-4.74l-14.79,1.9c-3.81,.49-5.97,2.59-6.45,6.45-.2,1.63-.41,3.26-.61,4.89-.07,.58-.14,1.16-.21,1.73-.17,1.41,.33-1.09-.02-.18s.67-.67,.08-.04c-.51,.55,.73-.68,.89-.8,.88-.69,.71-.19,.06-.07-.46,.08-.9,.24-1.37,.3,.36-.05-1.61,.02-1.92,.02,1.3,.02-1.17-.32-.37-.04,.74,.26-.29-.58-.07-.05,.06,.14,.62,.81,.79,.96l.02,.19c.04,.4,.04,.25,0-.44,.05,.06-.3,1.81,.02,.12,.21-1.15,.36-2.33,.46-3.5,.11-1.35-.2,1.23-.05,.26,.05-.32,.09-.63,.14-.95,.12-.82,.25-1.63,.39-2.45,1.32-7.96,3-15.87,4.63-23.77,.63-3.03,1.3-6.06,1.95-9.08,.71-3.29-.98-7.13-4.51-7.94-3.25-.74-7.17,.98-7.94,4.51-1.47,6.79-2.9,13.59-4.26,20.4-1.29,6.45-2.3,12.91-3.3,19.41,.13-.84-.06,.2-.09,.3-.17,.8-.31,1.61-.34,2.42-.05,1.28,.09,2.72,.42,3.95,.75,2.87,2.69,5.27,5.21,6.78,4.18,2.5,10.22,2.33,14.67,.69,7.51-2.78,7.37-10.91,8.21-17.6l-6.45,6.45,14.79-1.9-6.22-4.74c1.02,2.53,1.9,5.22,3.16,7.65,1.19,2.29,2.9,4.33,5.13,5.66,3.11,1.86,6.97,1.63,10.39,1.12,6.64-1,12.33-5.48,10.94-12.83-.42-2.19-1.59-4.4-2.46-6.46-2.06-4.87-4.12-9.74-6.19-14.61-1.56-3.68-3.16-7.34-4.8-10.98-.95-2.11-1.92-4.22-2.92-6.31-1.09-2.29-2.08-4.7-3.91-6.52-5-4.98-13.15-4.76-19.54-3.36-5.7,1.25-10.79,4.68-12.45,10.49-.93,3.24,1.13,7.17,4.51,7.94,3.44,.78,6.94-1.03,7.94-4.51Z"/><path class="cls-3" d="M357.8,194.6c-1.21,6.17-2.56,12.31-3.3,18.56-.18,1.46,.83,3.59,1.89,4.56,1.17,1.07,2.91,2.1,4.56,1.89l10.14-1.3c1.16,0,2.25-.3,3.26-.88,.75-.41,1.36-.96,1.81-1.66,1.14-1.47,1.9-3.78,1.15-5.62-2.32-5.75-4.68-11.49-7.22-17.15-.82-1.82-3.57-3.45-5.57-3.2l-.49,.06c-1.78,.23-3.24,.57-4.56,1.89-1.12,1.12-1.96,2.95-1.89,4.56s.62,3.4,1.89,4.56c1.17,1.07,2.91,2.1,4.56,1.89l.49-.06-5.57-3.2c.97,2.15,1.9,4.31,2.82,6.49l-.65-1.54c1.28,3.03,2.52,6.07,3.76,9.12l6.22-8.17-10.14,1.3,6.45,6.45c.05-.42,.1-.84,.16-1.26l-.23,1.72c.7-5.23,1.9-10.41,2.91-15.59,.34-1.72,.26-3.42-.65-4.97-.78-1.34-2.32-2.61-3.86-2.96-1.65-.38-3.51-.29-4.97,.65-1.35,.87-2.64,2.22-2.96,3.86Z"/></g></g><g><path class="cls-3" d="M443.83,219.3c.27,2.13-.2,3.65-1.41,4.58-1.21,.93-3.34,1.59-6.39,1.98-2.62,.34-4.76,.21-6.45-.38-1.68-.59-3.13-1.77-4.36-3.55l-10.21-15.47c-.95-1.32-2.81-4.46-5.61-9.42l-.48,.14c.89,4.76,1.79,10.74,2.72,17.93l1.14,8.91c.16,1.25,.02,2.3-.43,3.13-.45,.83-1.18,1.37-2.2,1.61l-3.17,.57c-2.67,.34-4.63,.11-5.86-.7-1.24-.81-2.02-2.44-2.33-4.89l-4.87-37.93c-.15-1.2-.12-2.2,.11-3.01,.23-.8,.72-1.5,1.48-2.1,1.62-1.15,3.69-1.89,6.2-2.21,2.62-.34,4.78-.21,6.49,.37,1.71,.58,3.15,1.77,4.32,3.56l10.29,15.46c.94,1.32,2.82,4.46,5.61,9.42l.4-.13c-.93-4.64-1.85-10.51-2.76-17.59l-1.22-9.48c-.16-1.25-.02-2.3,.43-3.13,.45-.83,1.18-1.37,2.2-1.61l3.17-.57c2.67-.34,4.63-.1,5.87,.74,1.24,.84,2.02,2.46,2.33,4.85l4.99,38.91Z"/><path class="cls-3" d="M437.38,219.3c.06,.44,.08,.88,.07,1.33,0-.41,.12-.79,.37-1.13,.32-.53,1.68-1.22,.47-.64-.4,.2-.26,.15,.43-.17-.35,.12-.71,.23-1.07,.33-.84,.23-1.72,.43-2.59,.53,.86-.1-1.38,.05-1.26,.05-.4,0-2.73-.37-1.44-.03-.37-.1-1.63-.25-.61-.13-.62-.4-.69-.42-.2-.04-.33-.29-.63-.59-.92-.92,.38,.46-.01-.06-.09-.16-.28-.4-.55-.83-.82-1.24l-2.88-4.36c-4.12-6.24-8.21-12.41-11.89-18.92-1.37-2.43-4.59-3.78-7.29-2.96l-.48,.14c-3.55,1.07-5.15,4.43-4.51,7.94,1.11,5.99,1.93,11.92,2.66,17.61l.79,6.13c.06,.46,.08,.94,.18,1.39,.21,.91-.22,.42,.19,.31-.06,.02,2.48-3.39,1.46-1.58,.22-.39,.73-.15-.04-.13-.87,.03-1.74,.48-2.61,.47,2.06,.01-.66-.06-1.21-.08,.22,.01,1.22,.2,.02-.03l.63,.3c-.49-.3-.52-.3-.08-.01,.14,.13,1.25,.97,.62,.5-.51-.38,.17,.69,.03-.07-.22-1.19-.27-.92-.1,0-.04-.23-.06-.46-.09-.68-.37-2.89-.74-5.78-1.11-8.67l-3.2-24.93c-.13-1.04-.27-2.07-.4-3.11-.02-.16-.04-.32-.06-.47-.06-.55-.04-1.11-.08-1.66-.06-.7-.21,.65-.39,.96-.41,.71-.94,.92-.11,.51,1.14-.57,.45-.22,.2-.12,.42-.16,.86-.28,1.29-.39,.46-.12,.93-.23,1.4-.29-.33,.05-.69,.02,.54-.02,.9-.03,1.81-.08,2.7,.04-1.53-.21,1.49,.24,.11,.08,.59,.07,.68,.46,.19,.04,.31,.26,.64,.6,.9,.92-.32-.41-.19-.21-.12-.11,.28,.39,.53,.79,.79,1.19,5.18,7.78,10.45,15.45,15.05,23.59,1.34,2.36,4.63,3.86,7.29,2.96l.4-.13c3.49-1.17,5.22-4.34,4.51-7.94-1.47-7.42-2.34-14.46-3.29-21.86-.14-1.1-.3-2.19-.42-3.29,0-.06-.01-.13-.02-.18-.39-1.79,.2-.43-.19-.34-.29,.07-1.5,2.05-1.69,1.68,.06,.13-.47,.04,.27,.02,.6-.02,1.26-.22,1.85-.33,.23-.04,.52-.14,.76-.14-1.94,0-.3,.09,.21,.08h.35c.83,.05,.87,.03,.11-.07l.52,.13c-.75-.37-.83-.39-.23-.06-.51-.36-.65-.54-1.05-.94,.33,.62,.33,.62,0-.02,.12,.41,.22,.83,.3,1.25,.2-.46-.19-1.55-.05-.43,.09,.7,.18,1.4,.27,2.1l.87,6.77,2.29,17.88,1.48,11.57c.43,3.33,2.66,6.62,6.45,6.45,3.13-.14,6.91-2.87,6.45-6.45l-4.01-31.24c-.67-5.22-.65-12.02-4.21-16.11-3.88-4.46-9.86-3.96-15.11-3.01-5.76,1.04-9.17,5.95-8.49,11.73,1.1,9.44,2.29,18.91,4.13,28.23l4.51-7.94-.4,.13,7.29,2.96c-4.62-8.18-9.92-15.88-15.12-23.7-1.6-2.4-3.28-4.73-5.8-6.27-4.32-2.63-9.73-2.58-14.53-1.56-5.82,1.23-10.76,5.08-11.14,11.35-.07,1.13,.11,2.24,.25,3.35l3.43,26.75c.4,3.14,.8,6.28,1.21,9.43,.44,3.36,1.11,6.69,3.58,9.22,3.48,3.56,8.61,3.64,13.19,2.88,4.62-.77,8.62-2.74,9.9-7.72,.72-2.79,0-5.82-.36-8.62-1.02-7.91-2.02-15.83-3.47-23.68l-4.51,7.94,.48-.14-7.29-2.96c3.33,5.9,6.99,11.5,10.72,17.15,1.62,2.45,3.21,4.93,4.86,7.36,3.41,5.03,8.23,7.82,14.39,7.67,7.95-.18,17.37-3.54,16.48-13.2-.31-3.35-2.75-6.62-6.45-6.45-3.23,.14-6.78,2.85-6.45,6.45Z"/></g><g><path class="cls-3" d="M452.82,153.84c1.26-.99,2.43-1.56,3.52-1.7,.54-.07,1.1-.06,1.67,.04,3.16,.43,4.9,1.95,5.24,4.56,.19,1.47-.08,2.74-.8,3.8-.72,1.06-2.04,2.13-3.95,3.21l-8.15,4.45c-1.14,.64-2.09,1.02-2.85,1.11s-1.57-.05-2.42-.44c-.85-.39-1.55-.94-2.08-1.64-.59-.7-.93-1.43-1.03-2.19-.22-1.74,.45-3.16,2.03-4.25l8.83-6.95Zm12.3,63.47c.34,2.67-.56,4.25-2.71,4.75l-3.33,.59c-2.83,.36-4.89,.13-6.16-.71-1.27-.83-2.07-2.53-2.4-5.09l-5.06-39.4c-.24-1.85,.07-3.14,.92-3.86,.85-.72,1.95-1.16,3.32-1.34l1.81-.15c2.83-.36,4.88-.13,6.16,.71,1.27,.83,2.07,2.53,2.4,5.09l5.06,39.4Z"/><g><path class="cls-3" d="M456.08,159.41c.67-.51,1.35-.95,2.11-1.3l-1.54,.65c.46-.18,.92-.32,1.41-.4l-1.72,.23c.45-.04,.88-.05,1.33-.01l-1.72-.23c.91,.12,1.78,.3,2.63,.65l-1.54-.65c.24,.11,.46,.24,.69,.35,.92,.45-1.29-1.22-.44-.34s-.68-1.17-.41-.58c.12,.25,.28,.48,.4,.73l-.65-1.54c.19,.48,.31,.97,.39,1.48l-.23-1.72c.06,.59,.07,1.15,0,1.73l.23-1.72c-.08,.43-.19,.83-.34,1.23l.65-1.54c-.05,.11-.46,.74-.46,.83-.01-.18,1.22-1.36,.45-.61-.17,.17-.33,.34-.5,.5-.11,.1-.23,.2-.35,.3-.37,.31-.15,.14,.66-.51-.7,.33-1.34,.9-2.03,1.28-.91,.51-1.84,1-2.75,1.5-2.16,1.18-4.29,2.51-6.54,3.52l1.54-.65c-.51,.21-1.02,.38-1.57,.47l1.72-.23c-.35,.03-.66,.03-1.01,0l1.72,.23c-.5-.09-.95-.23-1.42-.43l1.54,.65c-.26-.13-.5-.29-.75-.41-.28-.18-.19-.12,.25,.21,.47,.38,.52,.4,.16,.07-.14-.17-.28-.34-.43-.5,1.05,1.15,.49,.61,.24,.08l.65,1.54c-.12-.33-.2-.62-.26-.96l.23,1.72c-.04-.4-.04-.78,0-1.18l-.23,1.72c.06-.37,.15-.72,.29-1.07l-.65,1.54c.02-.05,.34-.74,.41-.73-.04,0-1.15,1.43-.31,.53,.36-.32,.14-.16-.67,.51,.44-.33,.87-.67,1.31-1.01l.03-.03c.23-.18,.45-.36,.68-.54l3.04-2.39,5.07-3.99c1.21-.95,1.89-3.1,1.89-4.56,0-1.58-.7-3.47-1.89-4.56s-2.84-1.97-4.56-1.89c-1.82,.08-3.14,.77-4.56,1.89l-7.06,5.56c-.49,.38-.97,.77-1.46,1.15-.1,.08-.2,.15-.29,.23,2.41-1.9,.05-.08-.41,.31-.5,.42-.87,.88-1.27,1.4-3.48,4.51-2.84,11.08,1.58,14.81,2.24,1.89,5.14,3.27,8.15,3.03,2.24-.18,4.17-.94,6.14-2.01,1.22-.67,2.45-1.34,3.67-2,4.7-2.57,9.82-4.94,11.82-10.33,1.86-5.02-.28-10.99-4.77-13.79-4.5-2.8-10.59-2.57-14.79,.64-1.39,1.07-2.48,2.09-2.96,3.86-.43,1.54-.23,3.6,.65,4.97s2.21,2.59,3.86,2.96,3.63,.38,4.97-.65Z"/><path class="cls-3" d="M458.68,217.32c-.01-.12,.13,1.23,.07,1.24-.16,.04,.33-1.21,.39-1.31,.14-.23,2-1.73,2.08-1.55-.05-.12-.39,.15-.58,.16-.98,.06-2.07,.31-3.02,.54-.52,.12,.22,.14,.71-.1-.26,.13-1.16,.08-1.39,.08-.41,0-.82,0-1.24-.04,.2,.02,1.32,.08,.15-.05,.23,.03,1.18,.7,.33,.1,.43,.3,.63,.52,1.02,.9,.13,.13,.37,1.38-.03-.06-.08-.28-.66-2.1-.25-.85,.34,1.05-.1-.74-.15-1.13l-.53-4.14-3.35-26.07c-.32-2.46-.68-4.92-.95-7.38-.03-.31-.22-1.43-.1-1.46,.15-.04-.37,1.23-.42,1.33l-1.33,1.33,.49-.29c-.26-.11-.64,.19,.18,.05-1.85,.31-.8,.09-.34,.06,1.3-.09,2.58-.22,3.88-.25,.56-.01,.91,.35-.04-.04,.49,.2,.76,.43-.21-.19,.5,.32,.32,.47-.23-.19-.25-.29-.58-1.39-.49-.72,.09,.61,.99,2.66,.29,.67,.02,.05,.01,.12,.02,.17,.04,.31,.08,.62,.12,.94l.5,3.89,1.59,12.36,2.83,22.03c.43,3.33,2.66,6.62,6.45,6.45,3.13-.14,6.91-2.87,6.45-6.45l-2.88-22.45-1.74-13.58c-.65-5.09-1.02-10.53-5.66-13.75-3.33-2.31-7.39-2.1-11.23-1.74-5.7,.53-10.68,3.67-11.08,9.83-.17,2.64,.5,5.47,.84,8.08l3.71,28.87c.7,5.44,.92,11.75,6.14,14.95,4.03,2.47,8.82,1.77,13.2,.99,5.54-.99,9.23-5.47,8.7-11.2-.31-3.35-2.75-6.62-6.45-6.45-3.23,.14-6.78,2.85-6.45,6.45Z"/></g></g><g><path class="cls-3" d="M479.64,173.5c.88-3.49,6.02-5.84,12.02-6.61,3-.38,3.82-.06,5.89,.53,2.07,.59,3.51,1.64,4.31,3.14,2.53,5.05,5.66,11.93,9.38,20.65l7.75,18.28c.25,.63,.41,1.22,.48,1.77,.18,1.42-.29,2.52-1.4,3.3-1.12,.78-2.79,1.31-5.03,1.6-2.45,.31-4.26,.16-5.42-.47s-2.2-1.96-3.13-4l-2.2-5.45-14.79,1.9-.66,5.24-.24,2.02c-.31,2.31-1.32,3.74-3.02,4.29-.8,.27-1.71,.47-2.75,.6-2.62,.34-4.69,.12-6.23-.65-1.54-.77-2.42-2-2.63-3.69-.13-1.03-.12-1.81,.03-2.33,.17-.8,.3-1.73,.39-2.79,.36-2.82,1.1-7.17,2.23-13.08l1.62-8.1,1.64-7.94,1.77-8.2Zm11.88,6.45l-1.56,7.93c-.66,3.02-1.17,5.99-1.51,8.92l10.14-1.3c-2.68-6.63-4.87-11.84-6.57-15.61l-.49,.06Z"/><g><path class="cls-3" d="M485.86,175.21c.42-1.39-.47,1-.03,.14,.39-.78-.52,1.02-.13,.22,.18-.36,1.2-.8,.08-.12,.32-.19,.62-.4,.95-.58s.7-.37,1.05-.52c-.97,.43,.03,.02,.21-.04,1.08-.32,2.15-.64,3.27-.87,1.24-.25,1.11-.24,2.14-.27,.44-.01,.88,0,1.32,.03-.26-.01-1.4-.34-.37,.01,.7,.24,1.47,.32,2.15,.63-.87-.39,.09,.11,.18,.2-.41-.41-.81-1.1-.39-.23,3.31,6.82,6.43,13.72,9.4,20.69,1.46,3.42,2.9,6.85,4.35,10.27l2.57,6.07c.23,.54,.49,1.08,.69,1.63,.03,.08,.11,.18,.11,.26l-.43-.91,.16,.59c-.09-1.05,.21-1.92,.79-2.78l.47-.4-.43,.23c.73-.3,.73-.32-.01-.06l-.6,.16c-1.21,.3-1.32,.16-2.57,.3l-.65-.02c.64,.12,.74,.13,.31,.03-.49-.13-.35-.05,.42,.24l-.38-.23,.57,.38c-.41-.45-.47-.52-.2-.21,.19,.82-.49-.96-.49-.97-.09,.49,.48,1.2,.25,.67-.1-.23-.19-.47-.29-.71l-.72-1.8-1.1-2.73c-.96-2.38-3.25-5.12-6.22-4.74l-14.79,1.9c-3.81,.49-5.97,2.59-6.45,6.45-.2,1.63-.41,3.26-.61,4.89-.07,.58-.14,1.16-.21,1.73-.17,1.41,.33-1.09-.02-.18s.67-.67,.08-.04c-.51,.55,.73-.68,.89-.8,.88-.69,.71-.19,.06-.07-.46,.08-.9,.24-1.37,.3,.36-.05-1.61,.02-1.92,.02,1.3,.02-1.17-.32-.37-.04,.74,.26-.29-.58-.07-.05,.06,.14,.62,.81,.79,.96l.02,.19c.04,.4,.04,.25,0-.44,.05,.06-.3,1.81,.02,.12,.21-1.15,.36-2.33,.46-3.5,.11-1.35-.2,1.23-.05,.26,.05-.32,.09-.63,.14-.95,.12-.82,.25-1.63,.39-2.45,1.32-7.96,3-15.87,4.63-23.77,.63-3.03,1.3-6.06,1.95-9.08,.71-3.29-.98-7.13-4.51-7.94-3.25-.74-7.17,.98-7.94,4.51-1.47,6.79-2.9,13.59-4.26,20.4-1.29,6.45-2.3,12.91-3.3,19.41,.13-.84-.06,.2-.09,.3-.17,.8-.31,1.61-.34,2.42-.05,1.28,.09,2.72,.42,3.95,.75,2.87,2.69,5.27,5.21,6.78,4.18,2.5,10.22,2.33,14.67,.69,7.51-2.78,7.37-10.91,8.21-17.6l-6.45,6.45,14.79-1.9-6.22-4.74c1.02,2.53,1.9,5.22,3.16,7.65,1.19,2.29,2.9,4.33,5.13,5.66,3.11,1.86,6.97,1.63,10.39,1.12,6.64-1,12.33-5.48,10.94-12.83-.42-2.19-1.59-4.4-2.46-6.46-2.06-4.87-4.12-9.74-6.19-14.61-1.56-3.68-3.16-7.34-4.8-10.98-.95-2.11-1.92-4.22-2.92-6.31-1.09-2.29-2.08-4.7-3.91-6.52-4.71-4.69-11.86-4.85-17.92-3.57s-12.17,4.48-14.07,10.7c-.98,3.23,1.17,7.18,4.51,7.94s6.88-1.05,7.94-4.51Z"/><path class="cls-3" d="M485.3,178.23c-1.21,6.17-2.56,12.31-3.3,18.56-.18,1.46,.83,3.59,1.89,4.56,1.17,1.07,2.91,2.1,4.56,1.89l10.14-1.3c1.16,0,2.25-.3,3.26-.88,.75-.41,1.36-.96,1.81-1.66,1.14-1.47,1.9-3.78,1.15-5.62-2.32-5.75-4.68-11.49-7.22-17.15-.82-1.82-3.57-3.45-5.57-3.2l-.49,.06c-1.78,.23-3.24,.57-4.56,1.89-1.12,1.12-1.96,2.95-1.89,4.56s.62,3.4,1.89,4.56c1.17,1.07,2.91,2.1,4.56,1.89l.49-.06-5.57-3.2c.97,2.15,1.9,4.31,2.82,6.49l-.65-1.54c1.28,3.03,2.52,6.07,3.76,9.12l6.22-8.17-10.14,1.3,6.45,6.45c.05-.42,.1-.84,.16-1.26l-.23,1.72c.7-5.23,1.9-10.41,2.91-15.59,.34-1.72,.26-3.42-.65-4.97-.78-1.34-2.32-2.61-3.86-2.96-1.65-.38-3.51-.29-4.97,.65-1.35,.87-2.64,2.22-2.96,3.86Z"/></g></g><g><path class="cls-2" d="M132.6,227.62c.85-3.49,2.36-6.53,4.52-9.14,2.01-2.47,4.51-4.48,7.49-6.03,2.99-1.55,6.3-2.55,9.96-3.02,3.65-.47,7.12-.33,10.4,.41,3.28,.74,6.23,2.05,8.85,3.93,2.75,1.97,4.97,4.54,6.68,7.7,1.71,3.16,2.82,6.78,3.35,10.87s.35,7.79-.5,11.28c-.85,3.49-2.3,6.56-4.34,9.2-2,2.53-4.51,4.57-7.52,6.12-3.01,1.55-6.4,2.57-10.16,3.05-3.71,.48-7.21,.33-10.52-.44-3.31-.77-6.25-2.12-8.83-4.06-2.64-2.04-4.82-4.64-6.53-7.8-1.71-3.16-2.82-6.73-3.33-10.71-.52-4.09-.36-7.87,.49-11.36Zm18.53,20.1c2.26,2.29,5.16,3.2,8.7,2.75s6.2-2.1,7.8-4.91c1.6-2.81,2.1-6.58,1.5-11.32s-2.05-8.18-4.34-10.49c-2.29-2.31-5.18-3.24-8.67-2.79-3.6,.46-6.2,2.08-7.81,4.87-1.61,2.78-2.11,6.54-1.5,11.28s2.05,8.34,4.31,10.62Z"/><g><path class="cls-2" d="M135.58,228.44c2.58-9.95,11.5-15.61,21.48-16.14,10.07-.54,19.09,4.65,22.35,14.41,3.02,9.04,2.19,20.36-5.46,26.9-7.11,6.09-19.28,7.49-27.53,3.06-9.71-5.21-13.19-18.02-10.84-28.23,.89-3.88-5.08-5.54-5.97-1.65-2.69,11.69,.66,25.62,10.47,33.13,9.62,7.37,24.38,6.98,34.52,.81,11.06-6.74,14.3-20.1,11.73-32.19-2.61-12.24-11.94-20.98-24.44-22.31-14.18-1.5-28.58,6.34-32.27,20.57-1,3.86,4.97,5.51,5.97,1.65Z"/><path class="cls-2" d="M148.94,249.91c5.02,4.88,13.53,5.01,18.8,.38,5.37-4.71,5.35-12.93,3.95-19.36-1.42-6.56-5.72-12.52-12.85-13.14-6.78-.59-12.88,3.47-14.68,10.04-1.08,3.93-.77,8.18,0,12.13,.71,3.66,2.18,7.22,4.78,9.94,2.76,2.89,7.14-1.5,4.38-4.38-3.11-3.25-3.9-9.01-3.62-13.47,.26-4.22,2.43-7.5,6.8-8.06,4.46-.57,7.35,2.42,8.62,6.34,1.36,4.2,2.05,9.94-.27,13.83s-8.31,4.5-11.54,1.36c-2.86-2.78-7.24,1.6-4.38,4.38Z"/></g></g><g><path class="cls-2" d="M189.6,218.14c-2.45,.31-4.07-.42-4.85-2.2-.43-1.16-.69-2.13-.79-2.89-.25-1.96,0-3.5,.78-4.63,.77-1.12,1.97-1.79,3.61-2l32.29-4.14c2.45-.31,4.07,.42,4.85,2.2,.43,1.16,.69,2.13,.79,2.89,.25,1.96,0,3.5-.78,4.63-.77,1.12-1.97,1.79-3.61,2l-9.07,1.16,4.36,34c.34,2.67-.56,4.25-2.71,4.75l-3.33,.59c-2.83,.36-4.88,.13-6.16-.71-1.27-.83-2.07-2.53-2.4-5.09l-4.07-31.71-8.91,1.14Z"/><path class="cls-2" d="M189.6,215.05c-1.8,.17-2.05-.02-2.46-1.81-.29-1.25-.45-2.77,.73-3.54,.42-.27,1.56-.32,2.41-.43l12.51-1.61,13.71-1.76c1.24-.16,2.48-.33,3.72-.48,.35-.04,.7-.1,1.05-.11,1.6-.06,1.77,1.07,1.95,2.58,.37,3.16-1.59,3.03-4.01,3.35l-6.4,.82c-1.49,.19-3.33,1.27-3.1,3.1l4.14,32.25c.07,.55,.15,1.09,.21,1.64,.05,.45,.2,1.04,.07,1.48-.15,.48-.08,.31-.74,.44-1.68,.33-3.34,.68-5.04,.6-1.99-.09-2.39-1.23-2.68-2.89-.86-4.87-1.27-9.86-1.9-14.77l-2.17-16.92c-.19-1.49-1.27-3.33-3.1-3.1l-8.91,1.14c-1.67,.21-3.08,1.27-3.1,3.1-.02,1.51,1.44,3.31,3.1,3.1l8.91-1.14-3.1-3.1c1.39,10.84,2.58,21.73,4.18,32.54,.42,2.84,1.57,5.69,4.19,7.16,2.44,1.37,5.58,1.21,8.24,.79,1.64-.26,3.5-.43,4.98-1.23,2.61-1.42,3.55-4.26,3.28-7.09-.51-5.18-1.33-10.35-1.99-15.52l-2.37-18.49-3.1,3.1,7.32-.94c3.64-.47,7.13-1.23,8.67-5.05s.41-10.47-3.78-12.44c-2-.94-4.03-.69-6.12-.42-10.03,1.29-20.07,2.56-30.1,3.86-4.16,.54-7.4,2.73-7.93,7.16-.68,5.69,2.45,11.4,8.73,10.82,3.94-.36,3.97-6.56,0-6.19Z"/></g><g><path class="cls-2" d="M233.98,208.54c-.3-2.34,.14-4.28,1.33-5.82,1.19-1.54,2.95-2.46,5.3-2.76l23.62-3.03c2.51-.32,4.09,.36,4.75,2.05,.43,1.16,.69,2.1,.78,2.81,.49,3.81-.9,5.93-4.17,6.35l-17.25,2.21,.98,7.6,15.04-1.93c2.51-.32,4.09,.36,4.75,2.05,.41,1.06,.67,1.96,.77,2.73,.49,3.81-.87,5.93-4.09,6.34l-15.04,1.93,1.1,8.58,17.66-2.27c2.51-.32,4.09,.36,4.75,2.05,.43,1.16,.68,2.1,.78,2.81,.5,3.87-.89,6.01-4.16,6.43l-23.87,3.06c-2.34,.3-4.28-.14-5.82-1.33-1.54-1.19-2.46-2.95-2.76-5.3l-4.44-34.57Z"/><path class="cls-2" d="M237.08,208.54c-.52-5.32,3.43-5.47,7.38-5.97l13.83-1.78,5.01-.64c.3-.04,.61-.09,.91-.12,1.44-.15,1.8-.33,2.2,1.06,.24,.84,.67,2.37,.2,3.21-.31,.55-.24,.3-.77,.64-.13,.08-.86,.22-.42,.11,.29-.07,.06,0-.01,0-1.5,.28-3.05,.39-4.56,.59l-12.52,1.61c-1.49,.19-3.33,1.27-3.1,3.1l.98,7.6c.19,1.49,1.27,3.33,3.1,3.1l9.83-1.26c1.61-.21,3.22-.43,4.84-.62,.58-.07,1.4-.34,1.92-.11,.78,.34,.89,1.82,.95,2.66,.05,.63,.12,1.55-.38,2.01-.13,.12-1.5,.46-.7,.32-.12,.02-.24,.03-.36,.05-1.6,.26-3.23,.41-4.84,.62l-9.83,1.26c-1.49,.19-3.33,1.27-3.1,3.1l1.1,8.58c.19,1.49,1.27,3.33,3.1,3.1,5.83-.75,11.65-1.62,17.5-2.25,.48-.05,1.33-.3,1.79-.08,.69,.33,.83,2,.88,2.75,.04,.62,.12,1.6-.39,2.06-.3,.27-.68,.27-1.04,.37,.45-.12,.29-.03,.14,0-2.77,.5-5.62,.72-8.41,1.08l-11.89,1.53c-2.51,.32-6.22,1.41-8-.91-1.15-1.5-1.11-3.88-1.38-5.94l-1.41-10.98-2.55-19.83c-.21-1.67-1.27-3.08-3.1-3.1-1.51-.02-3.31,1.44-3.1,3.1l2.52,19.62,1.54,11.99c.44,3.43,.68,7,3.2,9.67,3.27,3.47,7.56,3.18,11.82,2.64l12.95-1.66c2.92-.37,5.87-.66,8.78-1.13s5.48-2.5,6.25-5.54c.75-2.99,.15-7.34-1.95-9.7-3.09-3.48-8.61-1.86-12.62-1.35l-11.52,1.48,3.1,3.1-1.1-8.58-3.1,3.1,8.79-1.13c2.96-.38,7-.32,9.68-1.75,5-2.67,5.1-11.31,.99-14.85-2.89-2.48-7.05-1.36-10.46-.92l-10.43,1.34,3.1,3.1-.98-7.6-3.1,3.1,13.45-1.73c1.82-.23,3.87-.3,5.64-.8,4.16-1.17,5.88-5.08,5.42-9.13-.51-4.53-3-8.26-7.96-8.02-1.35,.07-2.7,.33-4.04,.5l-16.23,2.08c-1.82,.23-3.72,.36-5.52,.73-5.51,1.13-8.76,5.95-8.21,11.45,.39,3.93,6.58,3.97,6.19,0Z"/></g><g><path class="cls-2" d="M316,225.43c-.18,1.19-.49,2.14-.92,2.86-.44,.72-1.04,1.3-1.81,1.73-1.09,.53-2.46,.9-4.1,1.11-4.25,.55-6.84-.23-7.78-2.33l-5.26-11.21c-1.37-2.92-2.47-5.42-3.29-7.47l-.41,.05c.5,6.47,1.04,12,1.63,16.57,.62,5.68,1.02,9.87,1.2,12.56,.13,1.42-.08,2.53-.61,3.32-.54,.79-1.2,1.29-2.01,1.5-.86,.22-1.91,.41-3.17,.57-2.62,.34-4.59,.16-5.92-.53-1.33-.69-2.12-1.96-2.36-3.81l-2.79-39.19c-.09-1.15-.02-2.12,.21-2.89,.23-.78,.7-1.46,1.4-2.05,1.77-1.33,4.04-2.18,6.82-2.54,2.89-.37,5.21-.21,6.96,.48s3.14,1.99,4.16,3.91c1.38,2.59,2.92,5.69,4.6,9.3l4.41,9.74,.41-.05c1.23-8.52,2.5-15.88,3.81-22.09,.38-1.82,1.15-3.1,2.33-3.83,1.18-.73,3.02-1.26,5.53-1.58,2.67-.34,4.9-.23,6.69,.35,1.79,.57,2.92,1.58,3.38,3.01,1.04,3.36,3.39,13.47,7.05,30.33l2.05,10.12c.27,1.24,.2,2.3-.21,3.18-.41,.88-1.15,1.5-2.21,1.86-.68,.31-1.87,.57-3.55,.79-2.45,.31-4.34,.14-5.67-.52-1.33-.66-2.17-1.91-2.52-3.75-1.01-5.74-1.89-11.06-2.63-15.95-.66-4.68-1.3-8.64-1.94-11.88l-.41,.05c-.27,2.25-.71,5.02-1.34,8.31-.54,2.67-.93,4.85-1.15,6.55l-.56,3.4Z"/><path class="cls-2" d="M313.01,224.61c-.44,2.45-1.42,3.03-3.87,3.41-1.21,.19-3.68,.62-4.75-.28-.83-.7-1.42-2.84-1.9-3.87-2.26-4.83-4.67-9.62-6.65-14.57-.46-1.14-1.56-2.46-2.99-2.27l-.41,.05c-1.56,.2-3.24,1.26-3.1,3.1,.53,6.87,1.35,13.7,2.05,20.55,.28,2.72,.56,5.44,.75,8.16,.07,.97,.34,1.86-.59,2.32-1.24,.61-3.22,.58-4.58,.56-2.78-.04-2.67-1.32-2.83-3.53l-.6-8.41-1.59-22.36c-.14-1.98-.29-3.96-.42-5.95-.08-1.23-.27-2.32,.81-3.12,2.28-1.7,6.17-2.12,8.9-1.7,3.22,.49,4.26,3.31,5.58,5.93,1.18,2.34,2.32,4.7,3.4,7.09,1.36,2.99,2.71,5.98,4.06,8.98,.4,.87,1.71,1.66,2.67,1.53l.41-.05c1.22-.16,2.78-.84,2.99-2.27,.76-5.25,1.59-10.5,2.56-15.72,.39-2.12,.76-4.27,1.25-6.37s1.6-2.47,3.62-2.9c2.54-.55,7.7-1.44,8.62,1.81,.66,2.32,1.21,4.67,1.76,7.01,1.83,7.74,3.62,15.51,5.2,23.31l1.55,7.67c.11,.55,.47,1.5,.35,2.08-.31,1.55-4.12,1.51-5.31,1.49-2.72-.04-2.8-1.31-3.23-3.77-.54-3.09-1.06-6.19-1.56-9.29-.9-5.64-1.64-11.3-2.72-16.91-.23-1.19-1.73-2.43-2.99-2.27l-.41,.05c-1.83,.23-2.87,1.24-3.1,3.1-.71,5.84-1.99,11.63-2.95,17.43-.27,1.66,.44,3.31,2.16,3.81,1.48,.42,3.54-.52,3.81-2.16,1.05-6.36,2.39-12.68,3.17-19.08l-3.1,3.1,.41-.05-2.99-2.27c1.14,5.85,1.89,11.77,2.84,17.66,.55,3.38,.98,6.83,1.73,10.17,.6,2.68,2.18,4.92,4.77,5.96,2.76,1.1,5.89,.78,8.75,.24,2.61-.49,5.11-1.68,6.25-4.21,1.38-3.06,.02-6.92-.61-10.06-1.76-8.69-3.67-17.35-5.69-25.99-.68-2.93-1.35-5.87-2.18-8.76-1.44-5.07-6.08-6.8-11.02-6.67-2.98,.08-6.34,.53-9,1.98-2.74,1.49-3.79,4.22-4.38,7.11-1.42,6.92-2.54,13.89-3.56,20.88l2.99-2.27-.41,.05,2.67,1.53c-1.37-3.03-2.74-6.06-4.11-9.08-1.17-2.56-2.39-5.1-3.67-7.6-1.56-3.06-3.22-5.92-6.49-7.37-5.69-2.52-17.34-1.15-19.61,5.68-.79,2.37-.35,5.06-.18,7.52l1.75,24.55,.68,9.57c.28,3.93,1.61,7.64,5.87,8.76,1.97,.52,4.03,.42,6.03,.17,1.99-.25,4.09-.48,5.74-1.72,3.23-2.44,2.8-6.25,2.49-9.82-.76-8.69-1.9-17.33-2.58-26.03l-3.1,3.1,.41-.05-2.99-2.27c2.52,6.26,5.53,12.33,8.4,18.44,1.5,3.19,4.04,4.73,7.59,4.97,2.75,.19,5.9-.24,8.41-1.42,2.76-1.3,4.2-3.77,4.73-6.69,.7-3.9-5.27-5.57-5.97-1.65Z"/></g><g><path class="cls-2" d="M352.16,189.88c.88-3.49,4.32-5.62,10.31-6.39,3-.38,5.53-.28,7.6,.31,2.07,.59,3.51,1.64,4.31,3.14,2.53,5.05,5.66,11.93,9.38,20.65l7.75,18.28c.25,.63,.41,1.22,.48,1.77,.18,1.42-.29,2.52-1.4,3.3-1.12,.78-2.79,1.31-5.03,1.6-2.45,.31-4.26,.16-5.42-.47s-2.2-1.96-3.13-4l-2.2-5.45-14.79,1.9-.66,5.24-.24,2.02c-.31,2.31-1.32,3.74-3.02,4.29-.8,.27-1.71,.47-2.75,.6-2.62,.34-4.69,.12-6.23-.65-1.54-.77-2.42-2-2.63-3.69-.13-1.03-.12-1.81,.03-2.33,.17-.8,.3-1.73,.39-2.79,.36-2.82,1.1-7.17,2.23-13.08l1.62-8.1,1.64-7.94,1.77-8.2Zm11.88,6.45l-1.56,7.93c-.66,3.02-1.17,5.99-1.51,8.92l10.14-1.3c-2.68-6.63-4.87-11.84-6.57-15.61l-.49,.06Z"/><g><path class="cls-2" d="M355.14,190.71c.74-2.6,3.73-3.41,6.1-3.89,2.95-.61,8.56-1.38,10.46,1.7,1.82,2.95,3.1,6.41,4.52,9.56,1.67,3.69,3.29,7.4,4.88,11.13,1.46,3.42,2.9,6.85,4.35,10.27l2.57,6.07c.4,.95,1.18,2.28,.8,2.86-.79,1.18-4.31,1.21-5.51,1.21-1.85-.01-2.52-.81-3.33-2.44s-1.49-3.62-2.2-5.37c-.46-1.14-1.56-2.46-2.99-2.27l-14.79,1.9c-1.83,.24-2.86,1.24-3.1,3.1-.2,1.63-.41,3.26-.61,4.89-.15,1.26,.01,2.83-.91,3.61-1.04,.87-3.66,.79-4.92,.7-1.19-.08-2.49-.34-2.89-1.6-.42-1.34,.23-3.18,.39-4.52s.38-2.69,.6-4.03c1.32-7.96,3-15.87,4.63-23.77,.63-3.03,1.3-6.06,1.95-9.08,.84-3.89-5.13-5.55-5.97-1.65-1.47,6.79-2.9,13.59-4.26,20.4-1.23,6.15-2.32,12.31-3.18,18.52-.57,4.13-.5,8.18,3.54,10.56,3.42,2.01,8.5,1.75,12.09,.35,5.5-2.16,5.12-9.4,5.74-14.37l-3.1,3.1,14.79-1.9-2.99-2.27c.92,2.27,1.7,4.66,2.82,6.84,2.47,4.82,6.62,5.97,11.73,5.24,4.68-.67,9.54-3.19,8.6-8.71-.33-1.93-1.36-3.87-2.13-5.66-2.06-4.87-4.12-9.74-6.19-14.61-1.56-3.68-3.16-7.34-4.8-10.98-.95-2.11-1.92-4.22-2.92-6.31s-1.79-4.26-3.38-5.85c-4.09-4.06-11.11-3.63-16.27-2.5-4.53,.99-8.77,3.46-10.11,8.15-1.1,3.84,4.88,5.48,5.97,1.65Z"/><path class="cls-2" d="M361.05,195.51c-1.15,5.87-2.47,11.73-3.18,17.67-.18,1.52,1.57,3.29,3.1,3.1l10.14-1.3c1.01-.13,1.79-.39,2.43-1.22,.55-.71,.91-1.81,.55-2.7-2.22-5.48-4.46-10.96-6.89-16.35-.39-.87-1.71-1.66-2.67-1.53l-.49,.06c-1.6,.21-3.18,1.28-3.1,3.1,.07,1.5,1.38,3.32,3.1,3.1l.49-.06-2.67-1.53c.46,1.03,.92,2.06,1.37,3.1,.25,.58,.5,1.17,.75,1.75,.13,.31,.26,.62,.39,.93,.07,.16,.13,.32,.2,.48-.13-.3-.14-.34-.06-.13,1.22,2.91,2.42,5.83,3.6,8.76l2.99-3.92-10.14,1.3,3.1,3.1c.04-.31,.08-.63,.12-.94-.07,.54,.07-.48,.08-.6,.09-.64,.19-1.27,.3-1.9,.23-1.34,.48-2.68,.76-4.01,.18-.83,.34-1.66,.5-2.49l1.2-6.09c.31-1.58-.45-3.42-2.16-3.81-1.53-.35-3.48,.46-3.81,2.16Z"/></g></g><g><path class="cls-2" d="M443.85,219.32c.27,2.13-.2,3.65-1.41,4.58-1.21,.93-3.34,1.59-6.39,1.98-2.62,.34-4.76,.21-6.45-.38-1.68-.59-3.13-1.77-4.36-3.55l-10.21-15.47c-.95-1.32-2.81-4.46-5.61-9.42l-.48,.14c.89,4.76,1.79,10.74,2.72,17.93l1.14,8.91c.16,1.25,.02,2.3-.43,3.13-.45,.83-1.18,1.37-2.2,1.61l-3.17,.57c-2.67,.34-4.63,.11-5.86-.7-1.24-.81-2.02-2.44-2.33-4.89l-4.87-37.93c-.15-1.2-.12-2.2,.11-3.01,.23-.8,.72-1.5,1.48-2.1,1.62-1.15,3.69-1.89,6.2-2.21,2.62-.34,4.78-.21,6.49,.37,1.71,.58,3.15,1.77,4.32,3.56l10.29,15.46c.94,1.32,2.82,4.46,5.61,9.42l.4-.13c-.93-4.64-1.85-10.51-2.76-17.59l-1.22-9.48c-.16-1.25-.02-2.3,.43-3.13,.45-.83,1.18-1.37,2.2-1.61l3.17-.57c2.67-.34,4.63-.1,5.87,.74,1.24,.84,2.02,2.46,2.33,4.85l4.99,38.91Z"/><path class="cls-2" d="M440.75,219.32c.11,1.16,.29,1.87-.75,2.45-1.15,.64-2.74,.85-4.03,1.02-2.8,.38-5.74,.4-7.69-1.93-1.63-1.96-2.9-4.32-4.3-6.44-4.12-6.24-8.21-12.41-11.89-18.92-.66-1.17-2.2-1.81-3.5-1.42l-.48,.14c-1.7,.51-2.47,2.13-2.16,3.81,1.13,6.13,1.99,12.31,2.78,18.5l.79,6.13c.06,.46,.13,.93,.18,1.39,.11,1.19,.25,1.6-.85,1.84-1.56,.34-4.91,1.28-6.18,.04-.8-.78-.72-1.92-.86-2.89-.4-2.89-.74-5.78-1.11-8.67l-3.2-24.93c-.13-1.04-.27-2.07-.4-3.11-.18-1.5-.48-2.72,1.02-3.56,2.54-1.42,6.94-2.05,9.63-.72,1.37,.68,2.15,2.02,2.96,3.25,5.18,7.78,10.45,15.45,15.05,23.59,.64,1.13,2.22,1.85,3.5,1.42l.4-.13c1.67-.56,2.5-2.09,2.16-3.81-1.49-7.53-2.44-15.14-3.41-22.75-.14-1.1-.3-2.19-.42-3.29-.14-1.24-.36-1.79,.83-2.05s2.47-.49,3.71-.51c2.27-.04,2.83,.59,3.24,2.77,.47,2.49,.83,6.41,1.21,9.33l2.29,17.88,1.48,11.57c.21,1.67,1.27,3.08,3.1,3.1,1.51,.02,3.31-1.44,3.1-3.1l-4.01-31.24c-.53-4.14-.46-10.44-3.22-13.74-2.95-3.53-7.82-2.88-11.85-2.15-4.4,.8-6.54,4.08-6.03,8.5,1.07,9.14,2.23,18.32,4.01,27.34l2.16-3.81-.4,.13,3.5,1.42c-4.62-8.18-9.92-15.88-15.12-23.7-1.28-1.92-2.6-3.81-4.6-5.06-3.49-2.19-8.06-2.05-11.94-1.23-4.29,.91-8.34,3.37-8.68,8.11-.08,1.12,.11,2.24,.25,3.35l3.43,26.75c.4,3.14,.8,6.28,1.21,9.43,.32,2.46,.82,4.97,2.59,6.84,2.52,2.66,6.6,2.57,9.93,2.02s6.61-1.52,7.56-5.38c.59-2.42-.17-5.31-.48-7.72-.98-7.62-1.95-15.24-3.35-22.79l-2.16,3.81,.48-.14-3.5-1.42c3.33,5.9,6.99,11.5,10.72,17.15,1.62,2.45,3.21,4.93,4.86,7.36,2.75,4.06,6.56,6.13,11.5,6.01,6.22-.14,13.83-2.19,13.12-9.84-.36-3.94-6.56-3.97-6.19,0Z"/></g><g><path class="cls-2" d="M452.84,153.86c1.26-.99,2.43-1.56,3.52-1.7,.54-.07,1.1-.06,1.67,.04,3.16,.43,4.9,1.95,5.24,4.56,.19,1.47-.08,2.74-.8,3.8-.72,1.06-2.04,2.13-3.95,3.21l-8.15,4.45c-1.14,.64-2.09,1.02-2.85,1.11s-1.57-.05-2.42-.44c-.85-.39-1.55-.94-2.08-1.64-.59-.7-.93-1.43-1.03-2.19-.22-1.74,.45-3.16,2.03-4.25l8.83-6.95Zm12.3,63.47c.34,2.67-.56,4.25-2.71,4.75l-3.33,.59c-2.83,.36-4.89,.13-6.16-.71-1.27-.83-2.07-2.53-2.4-5.09l-5.06-39.4c-.24-1.85,.07-3.14,.92-3.86,.85-.72,1.95-1.16,3.32-1.34l1.81-.15c2.83-.36,4.88-.13,6.16,.71,1.27,.83,2.07,2.53,2.4,5.09l5.06,39.4Z"/><g><path class="cls-2" d="M454.4,156.54c.57-.44,1.16-.87,1.82-1.17-.5,.22,.39-.11,.41-.11,.79-.26-.54,.02,.39-.04,.31-.02,.76,.04,1.41,.21,.27,.07,.55,.16,.81,.26-.49-.2,0,.06,.2,.15,.64,.29-.31-.4,.16,.1,.12,.12,.54,.7,.14,.08,.13,.2,.25,.4,.36,.61-.35-.64-.02,0,.03,.19,.23,.88,.12,1.43-.34,2.19,.37-.6-.06,.06-.17,.17-.2,.21-.42,.4-.64,.6-.68,.61,.41-.23-.42,.32-.31,.2-.61,.41-.93,.6-.39,.24-.79,.46-1.19,.68l-3.76,2.05c-1.19,.65-2.37,1.3-3.56,1.94-.1,.06-.21,.11-.31,.17-.12,.07-1.21,.61-.85,.46-.18,.07-.36,.14-.55,.19-.11,.03-.91,.15-.24,.08-.4,.04-.91-.14-1.42-.55,.37,.29-.37-.42-.35-.4-.22-.27-.2-.2-.34-.55,.17,.42-.09-.65-.02-.02-.01-.13,.09-1-.04-.33,.04-.18,.08-.36,.15-.53-.22,.61,.13-.15,.2-.25-.38,.49,.3-.23,.33-.25-.37,.33,.29-.22,.54-.41,.73-.57,1.45-1.14,2.18-1.71l6.64-5.22c1.32-1.04,1.08-3.3,0-4.38-1.3-1.3-3.06-1.04-4.38,0l-7.06,5.56c-.49,.38-.97,.77-1.46,1.15-.09,.07-.19,.17-.29,.23,.91-.52-.18,.12-.41,.31-.38,.32-.7,.67-1.01,1.06-2.55,3.25-1.79,7.79,1.32,10.4,1.58,1.33,3.68,2.22,5.77,2.05,1.61-.14,3.05-.79,4.45-1.56,1.22-.67,2.45-1.34,3.67-2,3.79-2.07,8.63-4.02,10.28-8.32,1.37-3.6,.03-7.95-3.23-10-1.58-1-3.64-1.49-5.49-1.52-2.18-.04-4.21,.86-5.91,2.16-1.33,1.01-2.03,2.67-1.11,4.24,.76,1.31,2.9,2.13,4.24,1.11Z"/><path class="cls-2" d="M462.04,217.34c.11,1.22,.28,1.6-.51,1.78-.98,.22-2.02,.41-3.02,.54s-2.59,.37-3.54-.11-1.17-1.77-1.34-2.7c-.31-1.71-.5-3.87-.74-5.72l-3.35-26.07c-.32-2.46-.68-4.92-.95-7.38-.05-.47-.21-1.01-.1-1.46,.15-.63,.99-.77,1.93-.88,1.88-.21,5.28-1.12,6.14,1.07,.73,1.83,.78,4.41,1.05,6.55l1.59,12.36,2.83,22.03c.21,1.67,1.27,3.08,3.1,3.1,1.51,.02,3.31-1.44,3.1-3.1l-2.88-22.45-1.74-13.58c-.49-3.83-.59-8.37-4-10.86-2.76-2.01-6.34-1.6-9.54-1.28-3.83,.37-7.39,2.29-7.73,6.48-.21,2.62,.51,5.5,.84,8.08l3.71,28.87c.53,4.15,.53,9.62,4.48,12.06,3.19,1.97,7.14,1.27,10.62,.65,4.17-.74,6.64-3.6,6.24-7.96-.36-3.94-6.56-3.97-6.19,0Z"/></g></g><g><path class="cls-2" d="M479.65,173.52c.88-3.49,6.02-5.84,12.02-6.61,3-.38,3.82-.06,5.89,.53,2.07,.59,3.51,1.64,4.31,3.14,2.53,5.05,5.66,11.93,9.38,20.65l7.75,18.28c.25,.63,.41,1.22,.48,1.77,.18,1.42-.29,2.52-1.4,3.3-1.12,.78-2.79,1.31-5.03,1.6-2.45,.31-4.26,.16-5.42-.47s-2.2-1.96-3.13-4l-2.2-5.45-14.79,1.9-.66,5.24-.24,2.02c-.31,2.31-1.32,3.74-3.02,4.29-.8,.27-1.71,.47-2.75,.6-2.62,.34-4.69,.12-6.23-.65-1.54-.77-2.42-2-2.63-3.69-.13-1.03-.12-1.81,.03-2.33,.17-.8,.3-1.73,.39-2.79,.36-2.82,1.1-7.17,2.23-13.08l1.62-8.1,1.64-7.94,1.77-8.2Zm11.88,6.45l-1.56,7.93c-.66,3.02-1.17,5.99-1.51,8.92l10.14-1.3c-2.68-6.63-4.87-11.84-6.57-15.61l-.49,.06Z"/><g><path class="cls-2" d="M482.64,174.34c.83-2.71,5.4-3.64,7.74-4.1,2.71-.54,7.12-.86,8.82,1.91,1.82,2.95,3.1,6.41,4.52,9.56,1.67,3.69,3.29,7.4,4.88,11.13,1.46,3.42,2.9,6.85,4.35,10.27l2.57,6.07c.4,.95,1.18,2.28,.8,2.86-.79,1.18-4.31,1.21-5.51,1.21-1.85-.01-2.52-.81-3.33-2.44s-1.49-3.62-2.2-5.37c-.46-1.14-1.56-2.46-2.99-2.27l-14.79,1.9c-1.83,.24-2.86,1.24-3.1,3.1-.2,1.63-.41,3.26-.61,4.89-.15,1.26,.01,2.83-.91,3.61-1.04,.87-3.66,.79-4.92,.7-1.19-.08-2.49-.34-2.89-1.6-.42-1.34,.23-3.18,.39-4.52s.38-2.69,.6-4.03c1.32-7.96,3-15.87,4.63-23.77,.63-3.03,1.3-6.06,1.95-9.08,.84-3.89-5.13-5.55-5.97-1.65-1.47,6.79-2.9,13.59-4.26,20.4-1.23,6.15-2.32,12.31-3.18,18.52-.57,4.13-.5,8.18,3.54,10.56,3.42,2.01,8.5,1.75,12.09,.35,5.5-2.16,5.12-9.4,5.74-14.37l-3.1,3.1,14.79-1.9-2.99-2.27c.92,2.27,1.7,4.66,2.82,6.84,2.47,4.82,6.62,5.97,11.73,5.24,4.68-.67,9.54-3.19,8.6-8.71-.33-1.93-1.36-3.87-2.13-5.66-2.06-4.87-4.12-9.74-6.19-14.61-1.56-3.68-3.16-7.34-4.8-10.98-.95-2.11-1.92-4.22-2.92-6.31s-1.79-4.26-3.38-5.85c-3.81-3.79-9.8-3.73-14.66-2.7s-10.19,3.32-11.73,8.36c-1.16,3.82,4.81,5.45,5.97,1.65Z"/><path class="cls-2" d="M488.54,179.15c-1.15,5.87-2.47,11.73-3.18,17.67-.18,1.52,1.57,3.29,3.1,3.1l10.14-1.3c1.01-.13,1.79-.39,2.43-1.22,.55-.71,.91-1.81,.55-2.7-2.22-5.48-4.46-10.96-6.89-16.35-.39-.87-1.71-1.66-2.67-1.53l-.49,.06c-1.6,.21-3.18,1.28-3.1,3.1,.07,1.5,1.38,3.32,3.1,3.1l.49-.06-2.67-1.53c.46,1.03,.92,2.06,1.37,3.1,.25,.58,.5,1.17,.75,1.75,.13,.31,.26,.62,.39,.93,.07,.16,.13,.32,.2,.48-.13-.3-.14-.34-.06-.13,1.22,2.91,2.42,5.83,3.6,8.76l2.99-3.92-10.14,1.3,3.1,3.1c.04-.31,.08-.63,.12-.94-.07,.54,.07-.48,.08-.6,.09-.64,.19-1.27,.3-1.9,.23-1.34,.48-2.68,.76-4.01,.18-.83,.34-1.66,.5-2.49l1.2-6.09c.31-1.58-.45-3.42-2.16-3.81-1.53-.35-3.48,.46-3.81,2.16Z"/></g></g><path class="cls-1" d="M132.59,227.61c.85-3.49,2.36-6.53,4.52-9.14,2.01-2.47,4.51-4.48,7.49-6.03,2.99-1.55,6.3-2.55,9.96-3.02,3.65-.47,7.12-.33,10.4,.41,3.28,.74,6.23,2.05,8.85,3.93,2.75,1.97,4.97,4.54,6.68,7.7,1.71,3.16,2.82,6.78,3.35,10.87,.52,4.03,.35,7.79-.5,11.28-.85,3.49-2.3,6.56-4.34,9.2-2,2.53-4.51,4.57-7.52,6.12-3.01,1.55-6.4,2.57-10.16,3.05s-7.21,.33-10.52-.44c-3.31-.77-6.25-2.12-8.83-4.06-2.64-2.04-4.82-4.64-6.53-7.8-1.71-3.16-2.82-6.73-3.33-10.71s-.36-7.87,.49-11.36Zm18.53,20.1c2.26,2.29,5.16,3.2,8.7,2.75,3.6-.46,6.2-2.1,7.8-4.91,1.6-2.81,2.1-6.58,1.5-11.32-.6-4.69-2.05-8.18-4.34-10.49-2.29-2.31-5.18-3.24-8.67-2.79-3.6,.46-6.2,2.08-7.81,4.87-1.61,2.78-2.11,6.54-1.5,11.28s2.05,8.34,4.31,10.62Z"/><path class="cls-1" d="M189.6,218.13c-2.45,.31-4.07-.42-4.85-2.2-.43-1.16-.69-2.13-.79-2.89-.25-1.96,0-3.5,.78-4.63,.77-1.12,1.97-1.79,3.61-2l32.29-4.14c2.45-.31,4.07,.42,4.85,2.2,.43,1.16,.69,2.13,.79,2.89,.25,1.96,0,3.5-.78,4.63-.77,1.12-1.97,1.79-3.61,2l-9.07,1.16,4.36,34c.34,2.67-.56,4.25-2.71,4.75l-3.33,.59c-2.83,.36-4.88,.13-6.16-.71-1.27-.83-2.07-2.53-2.4-5.09l-4.07-31.71-8.91,1.14Z"/><path class="cls-1" d="M233.98,208.53c-.3-2.34,.14-4.28,1.33-5.82,1.19-1.54,2.95-2.46,5.3-2.76l23.62-3.03c2.51-.32,4.09,.36,4.75,2.05,.43,1.16,.69,2.1,.78,2.81,.49,3.81-.9,5.93-4.17,6.35l-17.25,2.21,.98,7.6,15.04-1.93c2.51-.32,4.09,.36,4.75,2.05,.41,1.06,.67,1.96,.77,2.73,.49,3.81-.87,5.93-4.09,6.34l-15.04,1.93,1.1,8.58,17.66-2.27c2.51-.32,4.09,.36,4.75,2.05,.43,1.16,.68,2.1,.78,2.81,.5,3.87-.89,6.01-4.16,6.43l-23.87,3.06c-2.34,.3-4.28-.14-5.82-1.33-1.54-1.19-2.46-2.95-2.76-5.3l-4.44-34.57Z"/><path class="cls-1" d="M316,225.42c-.18,1.19-.49,2.14-.92,2.86-.44,.72-1.04,1.3-1.81,1.73-1.09,.53-2.46,.9-4.1,1.11-4.25,.55-6.84-.23-7.78-2.33l-5.26-11.21c-1.37-2.92-2.47-5.42-3.29-7.47l-.41,.05c.5,6.47,1.04,12,1.63,16.57,.62,5.68,1.02,9.87,1.2,12.56,.13,1.42-.08,2.53-.61,3.32-.54,.79-1.2,1.29-2.01,1.5-.86,.22-1.91,.41-3.17,.57-2.62,.34-4.59,.16-5.92-.53-1.33-.69-2.12-1.96-2.36-3.81l-2.79-39.19c-.09-1.15-.02-2.12,.21-2.89,.23-.78,.7-1.46,1.4-2.05,1.77-1.33,4.04-2.18,6.82-2.54,2.89-.37,5.21-.21,6.96,.48s3.14,1.99,4.16,3.91c1.38,2.59,2.92,5.69,4.6,9.3l4.41,9.74,.41-.05c1.23-8.52,2.5-15.88,3.81-22.09,.38-1.82,1.15-3.1,2.33-3.83,1.18-.73,3.02-1.26,5.53-1.58,2.67-.34,4.9-.23,6.69,.35,1.79,.57,2.92,1.58,3.38,3.01,1.04,3.36,3.39,13.47,7.05,30.33l2.05,10.12c.27,1.24,.2,2.3-.21,3.18-.41,.88-1.15,1.5-2.21,1.86-.68,.31-1.87,.57-3.55,.79-2.45,.31-4.34,.14-5.67-.52s-2.17-1.91-2.52-3.75c-1.01-5.74-1.89-11.06-2.63-15.95-.66-4.68-1.3-8.64-1.94-11.88l-.41,.05c-.27,2.25-.71,5.02-1.34,8.31-.54,2.67-.93,4.85-1.15,6.55l-.56,3.4Z"/><path class="cls-1" d="M352.15,189.87c.88-3.49,4.32-5.62,10.31-6.39,3-.38,5.53-.28,7.6,.31,2.07,.59,3.51,1.64,4.31,3.14,2.53,5.05,5.66,11.93,9.38,20.65l7.75,18.28c.25,.63,.41,1.22,.48,1.77,.18,1.42-.29,2.52-1.4,3.3-1.12,.78-2.79,1.31-5.03,1.6-2.45,.31-4.26,.16-5.42-.47s-2.2-1.96-3.13-4l-2.2-5.45-14.79,1.9-.66,5.24-.24,2.02c-.31,2.31-1.32,3.74-3.02,4.29-.8,.27-1.71,.47-2.75,.6-2.62,.34-4.69,.12-6.23-.65-1.54-.77-2.42-2-2.63-3.69-.13-1.03-.12-1.81,.03-2.33,.17-.8,.3-1.73,.39-2.79,.36-2.82,1.1-7.17,2.23-13.08l1.62-8.1,1.64-7.94,1.77-8.2Zm11.88,6.45l-1.56,7.93c-.66,3.02-1.17,5.99-1.51,8.92l10.14-1.3c-2.68-6.63-4.87-11.84-6.57-15.61l-.49,.06Z"/><path class="cls-1" d="M443.84,219.31c.27,2.13-.2,3.65-1.41,4.58-1.21,.93-3.34,1.59-6.39,1.98-2.62,.34-4.76,.21-6.45-.38-1.68-.59-3.13-1.77-4.36-3.55l-10.21-15.47c-.95-1.32-2.81-4.46-5.61-9.42l-.48,.14c.89,4.76,1.79,10.74,2.72,17.93l1.14,8.91c.16,1.25,.02,2.3-.43,3.13-.45,.83-1.18,1.37-2.2,1.61l-3.17,.57c-2.67,.34-4.63,.11-5.86-.7-1.24-.81-2.02-2.44-2.33-4.89l-4.87-37.93c-.15-1.2-.12-2.2,.11-3.01,.23-.8,.72-1.5,1.48-2.1,1.62-1.15,3.69-1.89,6.2-2.21s4.78-.21,6.49,.37c1.71,.58,3.15,1.77,4.32,3.56l10.29,15.46c.94,1.32,2.82,4.46,5.61,9.42l.4-.13c-.93-4.64-1.85-10.51-2.76-17.59l-1.22-9.48c-.16-1.25-.02-2.3,.43-3.13,.45-.83,1.18-1.37,2.2-1.61l3.17-.57c2.67-.34,4.63-.1,5.87,.74,1.24,.84,2.02,2.46,2.33,4.85l4.99,38.91Z"/><path class="cls-1" d="M452.83,153.85c1.26-.99,2.43-1.56,3.52-1.7,.54-.07,1.1-.06,1.67,.04,3.16,.43,4.9,1.95,5.24,4.56,.19,1.47-.08,2.74-.8,3.8-.72,1.06-2.04,2.13-3.95,3.21l-8.15,4.45c-1.14,.64-2.09,1.02-2.85,1.11s-1.57-.05-2.42-.44c-.85-.39-1.55-.94-2.08-1.64-.59-.7-.93-1.43-1.03-2.19-.22-1.74,.45-3.16,2.03-4.25l8.83-6.95Zm12.3,63.47c.34,2.67-.56,4.25-2.71,4.75l-3.33,.59c-2.83,.36-4.89,.13-6.16-.71-1.27-.83-2.07-2.53-2.4-5.09l-5.06-39.4c-.24-1.85,.07-3.14,.92-3.86,.85-.72,1.95-1.16,3.32-1.34l1.81-.15c2.83-.36,4.88-.13,6.16,.71,1.27,.83,2.07,2.53,2.4,5.09l5.06,39.4Z"/><path class="cls-1" d="M479.65,173.5c.88-3.49,6.02-5.84,12.02-6.61,3-.38,3.82-.06,5.89,.53,2.07,.59,3.51,1.64,4.31,3.14,2.53,5.05,5.66,11.93,9.38,20.65l7.75,18.28c.25,.63,.41,1.22,.48,1.77,.18,1.42-.29,2.52-1.4,3.3-1.12,.78-2.79,1.31-5.03,1.6-2.45,.31-4.26,.16-5.42-.47s-2.2-1.96-3.13-4l-2.2-5.45-14.79,1.9-.66,5.24-.24,2.02c-.31,2.31-1.32,3.74-3.02,4.29-.8,.27-1.71,.47-2.75,.6-2.62,.34-4.69,.12-6.23-.65-1.54-.77-2.42-2-2.63-3.69-.13-1.03-.12-1.81,.03-2.33,.17-.8,.3-1.73,.39-2.79,.36-2.82,1.1-7.17,2.23-13.08l1.62-8.1,1.64-7.94,1.77-8.2Zm11.88,6.45l-1.56,7.93c-.66,3.02-1.17,5.99-1.51,8.92l10.14-1.3c-2.68-6.63-4.87-11.84-6.57-15.61l-.49,.06Z"/></g><g><g><path class="cls-3" d="M141.17,241.73c-.75-1.26-1.82-2.61-3.27-4.14l-.2-.21-.21-.19c-2.57-2.34-5.86-3.48-9.27-3.19-2.16,.18-4.36,.92-6.52,2.21l-9.65,4.65-13.49-23.78c-3.57-6.36-9.8-9.81-16.66-9.24-9.29,.77-16.22,8.96-15.45,18.25,.28,3.36,1.61,5.97,2.87,8.07l24.9,37.48c2.53,4.25,6.15,7.08,10.45,8.17,1.71,.44,3.47,.58,5.24,.44h0c2.65-.22,5.3-1.1,7.86-2.62l19.04-15.62c3.74-2.23,6.16-5.57,6.82-9.42,.59-3.47-.24-7.12-2.46-10.85Zm-1.79,10.13c-.31,1.83-1.39,4.43-4.77,6.44l-19.04,15.62c-1.99,1.18-4.01,1.87-6.01,2.03h0c-1.28,.11-2.57,0-3.82-.32-3.22-.82-5.85-2.9-7.81-6.2l-24.91-37.48c-1.06-1.76-2.08-3.75-2.28-6.22-.57-6.92,4.59-13.02,11.51-13.6,5.22-.43,9.8,2.14,12.56,7.07l16.56,27.76,12.54-7.05c1.6-.95,3.17-1.49,4.67-1.62,2.23-.19,4.31,.53,6.01,2.08l.1,.09,.09,.1c1.23,1.29,2.11,2.4,2.69,3.38,1.68,2.83,2.33,5.49,1.92,7.92Z"/><path class="cls-2" d="M134.78,240.55l-.09-.1-.1-.09c-1.7-1.55-3.78-2.27-6.01-2.08-1.5,.12-3.08,.67-4.67,1.62l-12.54,7.05-16.56-27.76c-2.76-4.93-7.34-7.5-12.56-7.07-6.92,.57-12.09,6.67-11.51,13.6,.21,2.47,1.22,4.46,2.28,6.22l24.91,37.48c1.96,3.3,4.59,5.38,7.81,6.2,1.25,.32,2.53,.42,3.82,.32h0c2-.17,4.02-.85,6.01-2.03l19.04-15.62c3.38-2.01,4.46-4.61,4.77-6.44,.41-2.43-.23-5.1-1.92-7.92-.58-.98-1.46-2.08-2.69-3.38Zm-2.03,14.6l-19.04,15.62c-2.44,1.45-4.8,1.89-7.06,1.32-2.27-.57-4.12-2.08-5.58-4.53l-24.91-37.49c-.85-1.41-1.64-2.9-1.78-4.66-.41-4.93,3.25-9.25,8.18-9.66,3.96-.33,7.13,1.74,9.08,5.23l19.16,31.13,14.98-9.08c2.56-1.52,4.68-1.51,6.36,.02,1.03,1.08,1.76,1.99,2.2,2.73,2.47,4.15,1.94,7.27-1.58,9.36Z"/><path class="cls-1" d="M132.14,243.06c-1.68-1.54-3.8-1.54-6.36-.02l-14.98,9.08-19.16-31.13c-1.95-3.5-5.12-5.56-9.08-5.23-4.93,.41-8.59,4.73-8.18,9.66,.15,1.76,.94,3.25,1.78,4.66l24.91,37.49c1.45,2.44,3.31,3.95,5.58,4.53,2.26,.58,4.62,.14,7.06-1.32l19.04-15.62c3.52-2.09,4.05-5.22,1.58-9.36-.44-.74-1.17-1.65-2.2-2.73Zm-47.48-12.24c-2.83,.23-5.31-1.87-5.55-4.7-.23-2.83,1.87-5.31,4.7-5.55s5.31,1.87,5.55,4.7c.23,2.83-1.87,5.31-4.7,5.55Z"/><path class="cls-2" d="M83.8,220.59c-2.83,.23-4.93,2.72-4.7,5.55,.23,2.83,2.72,4.93,5.55,4.7,2.83-.23,4.93-2.72,4.7-5.55-.23-2.83-2.72-4.93-5.55-4.7Zm.74,8.92c-2.1,.17-3.94-1.39-4.11-3.48-.17-2.1,1.39-3.94,3.48-4.11,2.1-.17,3.94,1.39,4.11,3.48,.17,2.1-1.39,3.94-3.48,4.11Z"/><path class="cls-3" d="M83.91,221.91c-2.1,.17-3.66,2.02-3.48,4.11,.17,2.1,2.02,3.66,4.11,3.48,2.1-.17,3.66-2.02,3.48-4.11-.17-2.1-2.02-3.66-4.11-3.48Zm.52,6.28c-1.37,.11-2.57-.9-2.68-2.27-.11-1.37,.9-2.57,2.27-2.68s2.57,.9,2.68,2.27-.9,2.57-2.27,2.68Z"/></g><ellipse class="cls-3" cx="108.41" cy="281.11" rx="9.69" ry="2.17"/></g></svg>